<svg width="1920" height="1023" viewBox="0 0 1920 1023" fill="none" xmlns="http://www.w3.org/2000/svg">
<mask id="mask0_20_136" style="mask-type:alpha" maskUnits="userSpaceOnUse" x="0" y="0" width="1920" height="1023">
<rect width="1920" height="1023" fill="#C4C4C4"/>
</mask>
<g mask="url(#mask0_20_136)">
<mask id="mask1_20_136" style="mask-type:alpha" maskUnits="userSpaceOnUse" x="-63" y="-49" width="2110" height="1181">
<rect width="2108.23" height="1180.13" transform="matrix(-1 0.000183475 -0.000252458 -1 2046.15 1131.36)" fill="#F5288F"/>
</mask>
<g mask="url(#mask1_20_136)">
<g filter="url(#filter0_f_20_136)">
<ellipse rx="736.61" ry="627.96" transform="matrix(-1 0.000183475 -0.000252458 -1 1563.51 1006.94)" fill="#FF7474"/>
</g>
<g filter="url(#filter1_f_20_136)">
<ellipse rx="736.61" ry="627.96" transform="matrix(-1 0.000183475 -0.000252458 -1 -408.105 541.913)" fill="#FF7474"/>
</g>
<g filter="url(#filter2_f_20_136)">
<ellipse rx="536.583" ry="457.437" transform="matrix(-1 0.000183475 -0.000252458 -1 14.3061 1085.89)" fill="#FFE178"/>
</g>
<g filter="url(#filter3_f_20_136)">
<ellipse rx="736.61" ry="627.96" transform="matrix(-1 0.000183475 -0.000252458 -1 2045.92 216.49)" fill="#FF2D78"/>
</g>
<g filter="url(#filter4_f_20_136)">
<ellipse rx="615.959" ry="525.105" transform="matrix(-1 0.000183475 -0.000252458 -1 795.191 1185.72)" fill="#FF7474"/>
</g>
<path d="M1957.2 1169.27C1220.76 1053.83 995.772 615.633 650.067 83.8545L2217.28 517.664C2376.07 773.347 2546.36 1261.63 1957.2 1169.27Z" fill="#FF2D78"/>
<g filter="url(#filter5_f_20_136)">
<path d="M1905.42 1175.8C1168.98 1060.36 1125.14 740.028 779.438 208.25L2144.16 478.727C2302.95 734.411 2494.57 1268.16 1905.42 1175.8Z" fill="#FF2D78"/>
</g>
<g filter="url(#filter6_f_20_136)">
<path d="M2012.48 1266.79C1273.96 1158.84 1264.18 842.548 940.002 240.969L2305.91 506.24C2454.27 795.739 2603.29 1353.15 2012.48 1266.79Z" fill="#FF2D78"/>
</g>
<g filter="url(#filter7_f_20_136)">
<ellipse rx="615.959" ry="525.105" transform="matrix(-1 0.000183475 -0.000252458 -1 991.731 -48.5781)" fill="#FF7474"/>
</g>
<path d="M2539.48 619.101C1418.2 689.789 896.17 126.033 157.086 -534.594L2627.07 -411.705C2971.63 -91.6654 3436.5 562.552 2539.48 619.101Z" fill="#FF2D78"/>
<g filter="url(#filter8_f_20_136)">
<path d="M2663.07 744.16C1541.8 814.848 1386.68 422.822 647.594 -237.805L2750.66 -286.646C3095.22 33.3937 3560.09 687.611 2663.07 744.16Z" fill="#FF9FB6"/>
</g>
<g filter="url(#filter9_f_20_136)">
<path d="M2364.58 587.229C1243.3 657.916 1088.19 265.891 349.103 -394.737L2452.16 -443.578C2796.73 -123.538 3261.6 530.679 2364.58 587.229Z" fill="#FF9FB6"/>
</g>
<g filter="url(#filter10_f_20_136)">
<ellipse rx="736.61" ry="627.96" transform="matrix(-1 0.000183475 -0.000252458 -1 1950.6 -48.7553)" fill="#FF7474"/>
</g>
<g filter="url(#filter11_f_20_136)">
<path d="M1747.54 508.867C1747.48 293.603 1952.14 119.061 2204.64 119.014C2457.15 118.968 2661.89 293.436 2661.95 508.699C2662 723.962 2457.35 898.505 2204.84 898.551C1952.33 898.598 1747.59 724.13 1747.54 508.867Z" fill="#FF2D78"/>
</g>
<g filter="url(#filter12_f_20_136)">
<ellipse cx="973.48" cy="169.835" rx="394" ry="244.383" transform="rotate(-180 973.48 169.835)" fill="#FFC978" fill-opacity="0.8"/>
</g>
</g>
<g filter="url(#filter13_f_20_136)">
<ellipse rx="325.701" ry="516.849" transform="matrix(0.90989 -0.526938 0.59223 0.743205 371.25 683.72)" fill="#FF7E46"/>
</g>
<mask id="mask2_20_136" style="mask-type:alpha" maskUnits="userSpaceOnUse" x="-667" y="-106" width="2051" height="1380">
<path d="M1222.45 1273.92L1383.9 217.668L239.182 -105.038L-100.656 -104.316L-666.742 480.452L-624.393 955.136L367.184 1156.39L1222.45 1273.92Z" fill="url(#paint0_linear_20_136)"/>
</mask>
<g mask="url(#mask2_20_136)">
<mask id="mask3_20_136" style="mask-type:alpha" maskUnits="userSpaceOnUse" x="-708" y="-174" width="2142" height="1456">
<path d="M-707.708 916.938C-573.621 439.649 -340.489 -149.017 -335.656 -173.161L1433.18 192.585L1233.43 1281.68L-707.708 916.938Z" fill="url(#paint1_linear_20_136)"/>
</mask>
<g mask="url(#mask3_20_136)">
<path d="M253.678 109.357C447.625 148.721 562.938 352.808 520.127 506.105C477.316 659.402 342.624 844.643 134.535 802.41C31.417 781.481 -122.406 858.545 -223.6 757.341C-326.612 654.319 -239.865 450.996 -218.269 373.665C-175.458 220.367 59.7303 69.9938 253.678 109.357Z" fill="#FFE178"/>
<g filter="url(#filter14_f_20_136)">
<path d="M247.688 122.015C455.692 164.232 567.481 327.197 534.244 446.212C501.007 565.227 378.911 705.485 170.908 663.269C67.8316 642.348 -80.4044 699.601 -186.316 615.479C-294.13 529.846 -220.453 373.277 -203.686 313.24C-170.449 194.225 39.684 79.7992 247.688 122.015Z" fill="#FFE178"/>
</g>
<g filter="url(#filter15_f_20_136)">
<path d="M263.317 161.018C496.449 208.334 617.517 406.118 576.477 553.076C535.436 700.034 393.619 875.038 160.487 827.722C44.9589 804.274 -127.639 891.555 -244.459 790.515C-363.377 687.66 -272.16 481.245 -251.457 407.112C-210.417 260.154 30.1851 113.701 263.317 161.018Z" fill="#FFE178"/>
</g>
<g filter="url(#filter16_f_20_136)">
<path d="M276.909 214.498C553.614 312.766 733.191 571.86 680.093 761.994C626.995 952.127 423.503 1128.02 143.908 1071.27C5.35451 1043.15 -230.628 1214.23 -368.799 1086.14C-509.452 955.743 -395.873 611.852 -369.087 515.939C-315.989 325.806 -43.6381 100.661 276.909 214.498Z" fill="#FFE178"/>
</g>
<g filter="url(#filter17_f_20_136)">
<path d="M338.845 277.988C639.896 339.089 852.158 641.023 800.244 826.917C748.33 1012.81 534.906 1181.85 233.855 1120.75C84.6695 1090.47 -116.282 1124.65 -267.674 996.104C-421.787 865.25 -402.126 461.941 -375.937 368.167C-324.023 182.272 37.7944 216.887 338.845 277.988Z" fill="#FFE178"/>
</g>
<g filter="url(#filter18_f_20_136)">
<path d="M456.795 380.335C767.903 443.477 965.762 748.39 912.664 938.523C859.566 1128.66 639.607 1301.21 328.499 1238.07C174.33 1206.78 15.9704 902.832 -140.754 770.974C-300.294 636.748 -185.477 386.035 -158.692 290.122C-105.594 99.9889 145.687 317.193 456.795 380.335Z" fill="#FFE178"/>
</g>
<g filter="url(#filter19_f_20_136)">
<path d="M231.241 302.607C503.461 357.857 667.841 655.975 614.743 846.108C561.645 1036.24 362.006 1212.92 89.7864 1157.67C-45.1117 1130.29 -223.027 1147.62 -356.856 1020.41C-493.089 890.915 -383.572 639.126 -356.787 543.213C-303.689 353.08 -40.9783 247.358 231.241 302.607Z" fill="#FFE178"/>
</g>
</g>
</g>
<mask id="mask4_20_136" style="mask-type:alpha" maskUnits="userSpaceOnUse" x="597" y="-935" width="3062" height="2351">
<path d="M597.767 234.061C970.885 741.644 1446.98 1389.09 1463.21 1415.62L3658.15 247.219L2792.71 -934.341L597.767 234.061Z" fill="url(#paint2_linear_20_136)"/>
</mask>
<g mask="url(#mask4_20_136)">
<path d="M2297.39 651.503C2544.95 519.723 2619.8 226.956 2500.31 63.8167C2380.82 -99.3228 2123.79 -260.069 1858.18 -118.68C1726.56 -48.6145 1486.87 -72.5969 1389.99 91.8864C1291.38 259.325 1490.55 462.558 1550.82 544.854C1670.32 707.994 2049.83 783.284 2297.39 651.503Z" fill="#FFE178"/>
<g filter="url(#filter20_f_20_136)">
<path d="M2284.18 639.108C2549.69 497.777 2625.13 240.215 2522.42 99.9852C2419.71 -40.2441 2184.75 -170.947 1919.24 -29.6152C1787.67 40.4214 1556.59 28.0723 1451.42 181.113C1344.37 336.903 1520.64 508.898 1572.45 579.637C1675.16 719.866 2018.68 780.44 2284.18 639.108Z" fill="#FFE178"/>
</g>
<g filter="url(#filter21_f_20_136)">
<path d="M2292.23 634.827C2589.8 476.422 2661.53 170.215 2534.89 -2.67036C2408.26 -175.556 2129.81 -342.672 1832.23 -184.267C1684.77 -105.769 1405.98 -146.63 1293.84 32.7245C1179.69 215.301 1403.66 444.132 1467.54 531.344C1594.17 704.23 1994.65 793.232 2292.23 634.827Z" fill="#FFE178"/>
</g>
<g filter="url(#filter22_f_20_136)">
<path d="M2311.57 596.07C2647.91 358.089 2788 -28.1415 2639.79 -230.482C2491.59 -432.822 2144.9 -552.298 1788.01 -362.323C1611.16 -268.181 1222.28 -367.689 1085.97 -155.079C947.206 61.3501 1197.97 311.427 1272.74 413.498C1420.94 615.838 1921.94 871.757 2311.57 596.07Z" fill="#FFE178"/>
</g>
<g filter="url(#filter23_f_20_136)">
<path d="M2375.38 448.29C2759.65 243.736 2899.52 -193.058 2754.62 -390.888C2609.72 -588.717 2252.29 -695.7 1868.01 -491.146C1677.59 -389.78 1391.08 -342.201 1236.99 -123.255C1080.14 99.6251 1330.14 341.563 1403.23 441.359C1548.13 639.188 1991.11 652.843 2375.38 448.29Z" fill="#FFE178"/>
</g>
<g filter="url(#filter24_f_20_136)">
<path d="M2467.1 289.71C2864.21 78.3226 3010.78 -370.299 2862.57 -572.639C2714.37 -774.979 2346.66 -883.268 1949.55 -671.88C1752.76 -567.128 1457.26 -517.159 1297.27 -291.943C1134.4 -62.6806 1390.65 184.479 1465.41 286.549C1613.61 488.889 2069.99 501.097 2467.1 289.71Z" fill="#FFE178"/>
</g>
<g filter="url(#filter25_f_20_136)">
<path d="M2191.99 480.878C2539.46 295.914 2643.29 -129.959 2495.09 -332.3C2346.88 -534.64 2005.11 -656.735 1657.64 -471.771C1485.45 -380.112 1236.96 -322.645 1106.19 -112.986C973.065 100.44 1222.55 351.2 1297.31 453.271C1445.52 655.611 1844.52 665.842 2191.99 480.878Z" fill="#FFE178"/>
</g>
</g>
<mask id="mask5_20_136" style="mask-type:alpha" maskUnits="userSpaceOnUse" x="-691" y="-578" width="1323" height="1343">
<path d="M300.589 764.985L631.031 438.905L-346.075 -577.565L-690.397 -192.091L300.589 764.985Z" fill="url(#paint3_linear_20_136)"/>
</mask>
<g mask="url(#mask5_20_136)">
<mask id="mask6_20_136" style="mask-type:alpha" maskUnits="userSpaceOnUse" x="-665" y="-548" width="1376" height="1336">
<path d="M710.296 353.557L226.363 787.934L-664.401 -159.696L-251.721 -547.641L710.296 353.557Z" fill="url(#paint4_linear_20_136)"/>
</mask>
<g mask="url(#mask6_20_136)">
<path d="M-128.786 -75.7667C-74.4743 172.495 115.141 298.437 262.315 376.104L377.221 446.559L440.28 504.39L214.602 557.392L15.0122 411.582L-374.758 13.4643C-374.758 13.4643 -591.331 -400.163 -482.348 -337.223C-381.217 -293.076 -218.078 -293.66 -128.786 -75.7667Z" fill="#FFC676"/>
<g filter="url(#filter26_f_20_136)">
<path d="M-128.786 -75.7667C-45.5839 160.929 -52.0209 172.975 186.416 334.726L377.221 446.559L440.28 504.39L214.602 557.392L15.0122 411.582L-374.758 13.4643C-374.758 13.4643 -591.331 -400.163 -482.348 -337.223C-381.217 -293.076 -218.078 -293.66 -128.786 -75.7667Z" fill="#FFC676"/>
</g>
<g filter="url(#filter27_f_20_136)">
<path d="M-128.786 -75.7667C-43.3614 268.9 15.9397 202.781 254.376 364.532L327.816 406.137L397.119 458.303L440.28 504.39L214.602 557.392L15.0122 411.582L-374.758 13.4643C-374.758 13.4643 -591.331 -400.163 -482.348 -337.223C-381.217 -293.076 -201.881 -315.089 -128.786 -75.7667Z" fill="#FFC676"/>
</g>
<g filter="url(#filter28_f_20_136)">
<path d="M-154.557 -125.999C-69.1322 218.668 -93.8843 294.334 290.411 385.822L363.852 427.426L472.947 503.082L552.142 570.459L214.549 556.973L14.9592 411.162L-374.811 13.0449C-374.811 13.0449 -591.384 -400.582 -482.401 -337.643C-381.27 -293.495 -227.652 -365.321 -154.557 -125.999Z" fill="#FFC676"/>
</g>
<g filter="url(#filter29_f_20_136)">
<path d="M-151.934 -140.664C-144.595 149.251 -32.2354 274.24 245.14 350.534L601.235 459.039L596.959 535.368L552.142 570.459L214.549 556.973L14.9592 411.162L-374.811 13.0449C-374.811 13.0449 -591.384 -400.582 -482.401 -337.643C-381.27 -293.495 -194.825 -479.486 -151.934 -140.664Z" fill="#FFC676"/>
</g>
</g>
</g>
</g>
<defs>
<filter id="filter0_f_20_136" x="274.442" y="-173.476" width="2578.13" height="2360.83" filterUnits="userSpaceOnUse" color-interpolation-filters="sRGB">
<feFlood flood-opacity="0" result="BackgroundImageFix"/>
<feBlend mode="normal" in="SourceGraphic" in2="BackgroundImageFix" result="shape"/>
<feGaussianBlur stdDeviation="276.229" result="effect1_foregroundBlur_20_136"/>
</filter>
<filter id="filter1_f_20_136" x="-1697.17" y="-638.504" width="2578.13" height="2360.83" filterUnits="userSpaceOnUse" color-interpolation-filters="sRGB">
<feFlood flood-opacity="0" result="BackgroundImageFix"/>
<feBlend mode="normal" in="SourceGraphic" in2="BackgroundImageFix" result="shape"/>
<feGaussianBlur stdDeviation="276.229" result="effect1_foregroundBlur_20_136"/>
</filter>
<filter id="filter2_f_20_136" x="-1074.73" y="75.9944" width="2178.08" height="2019.79" filterUnits="userSpaceOnUse" color-interpolation-filters="sRGB">
<feFlood flood-opacity="0" result="BackgroundImageFix"/>
<feBlend mode="normal" in="SourceGraphic" in2="BackgroundImageFix" result="shape"/>
<feGaussianBlur stdDeviation="276.229" result="effect1_foregroundBlur_20_136"/>
</filter>
<filter id="filter3_f_20_136" x="756.852" y="-963.927" width="2578.13" height="2360.83" filterUnits="userSpaceOnUse" color-interpolation-filters="sRGB">
<feFlood flood-opacity="0" result="BackgroundImageFix"/>
<feBlend mode="normal" in="SourceGraphic" in2="BackgroundImageFix" result="shape"/>
<feGaussianBlur stdDeviation="276.229" result="effect1_foregroundBlur_20_136"/>
</filter>
<filter id="filter4_f_20_136" x="-373.225" y="108.161" width="2336.83" height="2155.12" filterUnits="userSpaceOnUse" color-interpolation-filters="sRGB">
<feFlood flood-opacity="0" result="BackgroundImageFix"/>
<feBlend mode="normal" in="SourceGraphic" in2="BackgroundImageFix" result="shape"/>
<feGaussianBlur stdDeviation="276.229" result="effect1_foregroundBlur_20_136"/>
</filter>
<filter id="filter5_f_20_136" x="718.133" y="146.945" width="1648.72" height="1100.77" filterUnits="userSpaceOnUse" color-interpolation-filters="sRGB">
<feFlood flood-opacity="0" result="BackgroundImageFix"/>
<feBlend mode="normal" in="SourceGraphic" in2="BackgroundImageFix" result="shape"/>
<feGaussianBlur stdDeviation="30.6522" result="effect1_foregroundBlur_20_136"/>
</filter>
<filter id="filter6_f_20_136" x="813.307" y="114.273" width="1752.51" height="1288.2" filterUnits="userSpaceOnUse" color-interpolation-filters="sRGB">
<feFlood flood-opacity="0" result="BackgroundImageFix"/>
<feBlend mode="normal" in="SourceGraphic" in2="BackgroundImageFix" result="shape"/>
<feGaussianBlur stdDeviation="63.3478" result="effect1_foregroundBlur_20_136"/>
</filter>
<filter id="filter7_f_20_136" x="-176.685" y="-1126.14" width="2336.83" height="2155.12" filterUnits="userSpaceOnUse" color-interpolation-filters="sRGB">
<feFlood flood-opacity="0" result="BackgroundImageFix"/>
<feBlend mode="normal" in="SourceGraphic" in2="BackgroundImageFix" result="shape"/>
<feGaussianBlur stdDeviation="276.229" result="effect1_foregroundBlur_20_136"/>
</filter>
<filter id="filter8_f_20_136" x="499.955" y="-434.285" width="2830.32" height="1334.27" filterUnits="userSpaceOnUse" color-interpolation-filters="sRGB">
<feFlood flood-opacity="0" result="BackgroundImageFix"/>
<feBlend mode="normal" in="SourceGraphic" in2="BackgroundImageFix" result="shape"/>
<feGaussianBlur stdDeviation="73.8197" result="effect1_foregroundBlur_20_136"/>
</filter>
<filter id="filter9_f_20_136" x="239.564" y="-553.117" width="2754.12" height="1258.07" filterUnits="userSpaceOnUse" color-interpolation-filters="sRGB">
<feFlood flood-opacity="0" result="BackgroundImageFix"/>
<feBlend mode="normal" in="SourceGraphic" in2="BackgroundImageFix" result="shape"/>
<feGaussianBlur stdDeviation="54.7695" result="effect1_foregroundBlur_20_136"/>
</filter>
<filter id="filter10_f_20_136" x="661.532" y="-1229.17" width="2578.13" height="2360.83" filterUnits="userSpaceOnUse" color-interpolation-filters="sRGB">
<feFlood flood-opacity="0" result="BackgroundImageFix"/>
<feBlend mode="normal" in="SourceGraphic" in2="BackgroundImageFix" result="shape"/>
<feGaussianBlur stdDeviation="276.229" result="effect1_foregroundBlur_20_136"/>
</filter>
<filter id="filter11_f_20_136" x="1195.08" y="-433.443" width="2019.33" height="1884.45" filterUnits="userSpaceOnUse" color-interpolation-filters="sRGB">
<feFlood flood-opacity="0" result="BackgroundImageFix"/>
<feBlend mode="normal" in="SourceGraphic" in2="BackgroundImageFix" result="shape"/>
<feGaussianBlur stdDeviation="276.229" result="effect1_foregroundBlur_20_136"/>
</filter>
<filter id="filter12_f_20_136" x="279.48" y="-374.548" width="1388" height="1088.77" filterUnits="userSpaceOnUse" color-interpolation-filters="sRGB">
<feFlood flood-opacity="0" result="BackgroundImageFix"/>
<feBlend mode="normal" in="SourceGraphic" in2="BackgroundImageFix" result="shape"/>
<feGaussianBlur stdDeviation="150" result="effect1_foregroundBlur_20_136"/>
</filter>
<filter id="filter13_f_20_136" x="-303.335" y="14.3578" width="1349.17" height="1338.72" filterUnits="userSpaceOnUse" color-interpolation-filters="sRGB">
<feFlood flood-opacity="0" result="BackgroundImageFix"/>
<feBlend mode="normal" in="SourceGraphic" in2="BackgroundImageFix" result="shape"/>
<feGaussianBlur stdDeviation="124.268" result="effect1_foregroundBlur_20_136"/>
</filter>
<filter id="filter14_f_20_136" x="-253.781" y="103.126" width="803.755" height="577.759" filterUnits="userSpaceOnUse" color-interpolation-filters="sRGB">
<feFlood flood-opacity="0" result="BackgroundImageFix"/>
<feBlend mode="normal" in="SourceGraphic" in2="BackgroundImageFix" result="shape"/>
<feGaussianBlur stdDeviation="4.97072" result="effect1_foregroundBlur_20_136"/>
</filter>
<filter id="filter15_f_20_136" x="-339.19" y="117.169" width="958.359" height="758.168" filterUnits="userSpaceOnUse" color-interpolation-filters="sRGB">
<feFlood flood-opacity="0" result="BackgroundImageFix"/>
<feBlend mode="normal" in="SourceGraphic" in2="BackgroundImageFix" result="shape"/>
<feGaussianBlur stdDeviation="17.3975" result="effect1_foregroundBlur_20_136"/>
</filter>
<filter id="filter16_f_20_136" x="-487.496" y="134.044" width="1226.6" height="1049.97" filterUnits="userSpaceOnUse" color-interpolation-filters="sRGB">
<feFlood flood-opacity="0" result="BackgroundImageFix"/>
<feBlend mode="normal" in="SourceGraphic" in2="BackgroundImageFix" result="shape"/>
<feGaussianBlur stdDeviation="24.8536" result="effect1_foregroundBlur_20_136"/>
</filter>
<filter id="filter17_f_20_136" x="-528.09" y="95.0358" width="1470.37" height="1172.64" filterUnits="userSpaceOnUse" color-interpolation-filters="sRGB">
<feFlood flood-opacity="0" result="BackgroundImageFix"/>
<feBlend mode="normal" in="SourceGraphic" in2="BackgroundImageFix" result="shape"/>
<feGaussianBlur stdDeviation="67.1047" result="effect1_foregroundBlur_20_136"/>
</filter>
<filter id="filter18_f_20_136" x="-556.764" y="-119.256" width="1811.06" height="1703.63" filterUnits="userSpaceOnUse" color-interpolation-filters="sRGB">
<feFlood flood-opacity="0" result="BackgroundImageFix"/>
<feBlend mode="normal" in="SourceGraphic" in2="BackgroundImageFix" result="shape"/>
<feGaussianBlur stdDeviation="166.519" result="effect1_foregroundBlur_20_136"/>
</filter>
<filter id="filter19_f_20_136" x="-577.878" y="133.88" width="1356.65" height="1188.15" filterUnits="userSpaceOnUse" color-interpolation-filters="sRGB">
<feFlood flood-opacity="0" result="BackgroundImageFix"/>
<feBlend mode="normal" in="SourceGraphic" in2="BackgroundImageFix" result="shape"/>
<feGaussianBlur stdDeviation="77.0461" result="effect1_foregroundBlur_20_136"/>
</filter>
<filter id="filter20_f_20_136" x="1407.6" y="-100.405" width="1168.89" height="829.964" filterUnits="userSpaceOnUse" color-interpolation-filters="sRGB">
<feFlood flood-opacity="0" result="BackgroundImageFix"/>
<feBlend mode="normal" in="SourceGraphic" in2="BackgroundImageFix" result="shape"/>
<feGaussianBlur stdDeviation="4.97072" result="effect1_foregroundBlur_20_136"/>
</filter>
<filter id="filter21_f_20_136" x="1227.14" y="-282.583" width="1402.32" height="1034.73" filterUnits="userSpaceOnUse" color-interpolation-filters="sRGB">
<feFlood flood-opacity="0" result="BackgroundImageFix"/>
<feBlend mode="normal" in="SourceGraphic" in2="BackgroundImageFix" result="shape"/>
<feGaussianBlur stdDeviation="17.3975" result="effect1_foregroundBlur_20_136"/>
</filter>
<filter id="filter22_f_20_136" x="995.139" y="-507.5" width="1753.17" height="1273.85" filterUnits="userSpaceOnUse" color-interpolation-filters="sRGB">
<feFlood flood-opacity="0" result="BackgroundImageFix"/>
<feBlend mode="normal" in="SourceGraphic" in2="BackgroundImageFix" result="shape"/>
<feGaussianBlur stdDeviation="24.8536" result="effect1_foregroundBlur_20_136"/>
</filter>
<filter id="filter23_f_20_136" x="1052.02" y="-735.699" width="1892.79" height="1465.72" filterUnits="userSpaceOnUse" color-interpolation-filters="sRGB">
<feFlood flood-opacity="0" result="BackgroundImageFix"/>
<feBlend mode="normal" in="SourceGraphic" in2="BackgroundImageFix" result="shape"/>
<feGaussianBlur stdDeviation="67.1047" result="effect1_foregroundBlur_20_136"/>
</filter>
<filter id="filter24_f_20_136" x="911.047" y="-1119.8" width="2341.17" height="1896.17" filterUnits="userSpaceOnUse" color-interpolation-filters="sRGB">
<feFlood flood-opacity="0" result="BackgroundImageFix"/>
<feBlend mode="normal" in="SourceGraphic" in2="BackgroundImageFix" result="shape"/>
<feGaussianBlur stdDeviation="166.519" result="effect1_foregroundBlur_20_136"/>
</filter>
<filter id="filter25_f_20_136" x="913.66" y="-716.972" width="1801.1" height="1483.72" filterUnits="userSpaceOnUse" color-interpolation-filters="sRGB">
<feFlood flood-opacity="0" result="BackgroundImageFix"/>
<feBlend mode="normal" in="SourceGraphic" in2="BackgroundImageFix" result="shape"/>
<feGaussianBlur stdDeviation="77.0461" result="effect1_foregroundBlur_20_136"/>
</filter>
<filter id="filter26_f_20_136" x="-523.398" y="-354.131" width="974.068" height="921.913" filterUnits="userSpaceOnUse" color-interpolation-filters="sRGB">
<feFlood flood-opacity="0" result="BackgroundImageFix"/>
<feBlend mode="normal" in="SourceGraphic" in2="BackgroundImageFix" result="shape"/>
<feGaussianBlur stdDeviation="5.19481" result="effect1_foregroundBlur_20_136"/>
</filter>
<filter id="filter27_f_20_136" x="-529.335" y="-360.068" width="985.942" height="933.787" filterUnits="userSpaceOnUse" color-interpolation-filters="sRGB">
<feFlood flood-opacity="0" result="BackgroundImageFix"/>
<feBlend mode="normal" in="SourceGraphic" in2="BackgroundImageFix" result="shape"/>
<feGaussianBlur stdDeviation="8.16328" result="effect1_foregroundBlur_20_136"/>
</filter>
<filter id="filter28_f_20_136" x="-541.262" y="-372.361" width="1121.6" height="971.019" filterUnits="userSpaceOnUse" color-interpolation-filters="sRGB">
<feFlood flood-opacity="0" result="BackgroundImageFix"/>
<feBlend mode="normal" in="SourceGraphic" in2="BackgroundImageFix" result="shape"/>
<feGaussianBlur stdDeviation="14.1002" result="effect1_foregroundBlur_20_136"/>
</filter>
<filter id="filter29_f_20_136" x="-559.073" y="-395.707" width="1206.32" height="1012.18" filterUnits="userSpaceOnUse" color-interpolation-filters="sRGB">
<feFlood flood-opacity="0" result="BackgroundImageFix"/>
<feBlend mode="normal" in="SourceGraphic" in2="BackgroundImageFix" result="shape"/>
<feGaussianBlur stdDeviation="23.0056" result="effect1_foregroundBlur_20_136"/>
</filter>
<linearGradient id="paint0_linear_20_136" x1="507.43" y1="456.768" x2="-135.076" y2="341.507" gradientUnits="userSpaceOnUse">
<stop stop-color="#C4C4C4"/>
<stop offset="0.943414" stop-color="#C4C4C4" stop-opacity="0"/>
</linearGradient>
<linearGradient id="paint1_linear_20_136" x1="257.334" y1="180.161" x2="131.296" y2="823.165" gradientUnits="userSpaceOnUse">
<stop stop-color="#C4C4C4"/>
<stop offset="1" stop-color="#C4C4C4" stop-opacity="0"/>
</linearGradient>
<linearGradient id="paint2_linear_20_136" x1="2243.82" y1="739.931" x2="1789.73" y2="-176.834" gradientUnits="userSpaceOnUse">
<stop stop-color="#C4C4C4"/>
<stop offset="1" stop-color="#C4C4C4" stop-opacity="0"/>
</linearGradient>
<linearGradient id="paint3_linear_20_136" x1="-29.9286" y1="123.43" x2="-140.773" y2="241.272" gradientUnits="userSpaceOnUse">
<stop stop-color="#C4C4C4"/>
<stop offset="1" stop-color="#C4C4C4" stop-opacity="0"/>
</linearGradient>
<linearGradient id="paint4_linear_20_136" x1="-508.614" y1="-312.747" x2="322.789" y2="775.092" gradientUnits="userSpaceOnUse">
<stop stop-color="#C4C4C4" stop-opacity="0"/>
<stop offset="0.364583" stop-color="#C4C4C4"/>
<stop offset="0.609375" stop-color="#C4C4C4"/>
<stop offset="1" stop-color="#C4C4C4" stop-opacity="0"/>
</linearGradient>
</defs>
</svg>
