<svg width="1920" height="960" viewBox="0 0 1920 960" fill="none" xmlns="http://www.w3.org/2000/svg">
<g id="back fon">
<path d="M0 122.942C0 110.24 10.2975 99.9422 23 99.9422H711.557C719.005 99.9422 725.991 96.336 730.305 90.265L787.572 9.67713C791.886 3.60621 798.873 0 806.321 0H1897C1909.7 0 1920 10.2975 1920 23V937C1920 949.703 1909.7 960 1897 960H23C10.2974 960 0 949.703 0 937V122.942Z" fill="url(#paint0_radial_25_509)"/>
<path d="M0 122.942C0 110.24 10.2975 99.9422 23 99.9422H711.557C719.005 99.9422 725.991 96.336 730.305 90.265L787.572 9.67713C791.886 3.60621 798.873 0 806.321 0H1897C1909.7 0 1920 10.2975 1920 23V937C1920 949.703 1909.7 960 1897 960H23C10.2974 960 0 949.703 0 937V122.942Z" fill="url(#paint1_radial_25_509)"/>
<path d="M0 122.942C0 110.24 10.2975 99.9422 23 99.9422H711.557C719.005 99.9422 725.991 96.336 730.305 90.265L787.572 9.67713C791.886 3.60621 798.873 0 806.321 0H1897C1909.7 0 1920 10.2975 1920 23V937C1920 949.703 1909.7 960 1897 960H23C10.2974 960 0 949.703 0 937V122.942Z" fill="url(#paint2_radial_25_509)"/>
</g>
<defs>
<radialGradient id="paint0_radial_25_509" cx="0" cy="0" r="1" gradientUnits="userSpaceOnUse" gradientTransform="translate(1006 315) rotate(148.671) scale(1321.71 3095.85)">
<stop stop-color="#F39261"/>
<stop offset="1" stop-color="#FFB7A7"/>
</radialGradient>
<radialGradient id="paint1_radial_25_509" cx="0" cy="0" r="1" gradientUnits="userSpaceOnUse" gradientTransform="translate(4.64862e-06 1075) rotate(-41.7727) scale(547.068 1236.89)">
<stop stop-color="#FF4479"/>
<stop offset="1" stop-color="#FFB7A7" stop-opacity="0"/>
</radialGradient>
<radialGradient id="paint2_radial_25_509" cx="0" cy="0" r="1" gradientUnits="userSpaceOnUse" gradientTransform="translate(1869.5 97.2222) rotate(137.44) scale(1016.88 2292.57)">
<stop stop-color="#FFD286"/>
<stop offset="1" stop-color="#FFB7A7" stop-opacity="0"/>
</radialGradient>
</defs>
</svg>
