<svg width="206" height="57" viewBox="0 0 206 57" fill="none" xmlns="http://www.w3.org/2000/svg">
<path d="M40.7734 18.8672H44.043V27.1406L43.9961 29.3555L43.8789 31.875H43.9492L51.8594 18.8672H56.207V36H52.9727V27.7734C52.9727 26.6719 53.043 25.0391 53.1836 22.875H53.0898L45.1445 36H40.7734V18.8672ZM63.5078 27.9375C64.8594 27.9375 65.8164 27.8281 66.3789 27.6094C66.9492 27.3906 67.2344 27.043 67.2344 26.5664C67.2344 26.1445 67.0273 25.8281 66.6133 25.6172C66.1992 25.4062 65.5156 25.3008 64.5625 25.3008C63.9609 25.3008 63.2773 25.375 62.5117 25.5234C61.7539 25.6719 61.0625 25.875 60.4375 26.1328L59.3828 23.6367C60.3125 23.2852 61.2148 23.0352 62.0898 22.8867C62.9648 22.7305 63.9414 22.6523 65.0195 22.6523C66.6523 22.6523 67.9609 22.9648 68.9453 23.5898C69.9297 24.2148 70.4219 25.0625 70.4219 26.1328C70.4219 27.6094 69.5508 28.5703 67.8086 29.0156V29.1328C68.8789 29.3984 69.6406 29.7773 70.0938 30.2695C70.5547 30.7539 70.7852 31.3906 70.7852 32.1797C70.7852 32.9766 70.5273 33.6836 70.0117 34.3008C69.4961 34.918 68.75 35.3945 67.7734 35.7305C66.7969 36.0664 65.6484 36.2344 64.3281 36.2344C62.1406 36.2344 60.4609 35.9648 59.2891 35.4258V32.4727C59.9609 32.7852 60.6953 33.0312 61.4922 33.2109C62.2969 33.3906 63.0742 33.4805 63.8242 33.4805C64.9883 33.4805 65.8594 33.3516 66.4375 33.0938C67.0156 32.8281 67.3047 32.4531 67.3047 31.9688C67.3047 31.4375 67 31.0469 66.3906 30.7969C65.7812 30.5391 64.8438 30.4102 63.5781 30.4102H62.1953V27.9375H63.5078ZM90.0977 36H86.7578V25.6758L86.5703 26.4023C86.1484 28.0508 85.7695 29.2969 85.4336 30.1406L83.1133 36H80.5703L78.2148 30.0938C77.8789 29.2344 77.5195 28.0273 77.1367 26.4727L76.9141 25.6758V36H73.5859V22.8984H78.5078L80.7578 28.4883C80.9922 29.0898 81.207 29.7812 81.4023 30.5625C81.6055 31.3438 81.7422 32.0117 81.8125 32.5664C82.0703 31.3945 82.2695 30.5547 82.4102 30.0469C82.5586 29.5312 82.7188 29.0586 82.8906 28.6289C83.0625 28.1992 83.8398 26.2891 85.2227 22.8984H90.0977V36ZM99.2852 25.1953C98.5273 25.1953 97.9336 25.4375 97.5039 25.9219C97.0742 26.3984 96.8281 27.0781 96.7656 27.9609H101.781C101.766 27.0781 101.535 26.3984 101.09 25.9219C100.645 25.4375 100.043 25.1953 99.2852 25.1953ZM99.7891 36.2344C97.6797 36.2344 96.0312 35.6523 94.8438 34.4883C93.6562 33.3242 93.0625 31.6758 93.0625 29.543C93.0625 27.3477 93.6094 25.6523 94.7031 24.457C95.8047 23.2539 97.3242 22.6523 99.2617 22.6523C101.113 22.6523 102.555 23.1797 103.586 24.2344C104.617 25.2891 105.133 26.7461 105.133 28.6055V30.3398H96.6836C96.7227 31.3555 97.0234 32.1484 97.5859 32.7188C98.1484 33.2891 98.9375 33.5742 99.9531 33.5742C100.742 33.5742 101.488 33.4922 102.191 33.3281C102.895 33.1641 103.629 32.9023 104.395 32.543V35.3086C103.77 35.6211 103.102 35.8516 102.391 36C101.68 36.1562 100.812 36.2344 99.7891 36.2344ZM111.613 22.8984V27.9375H116.605V22.8984H120.18V36H116.605V30.5977H111.613V36H108.039V22.8984H111.613ZM127.387 22.8984V28.0781C127.387 28.625 127.297 29.9609 127.117 32.0859L133.164 22.8984H137.465V36H134.008V30.7734C134.008 29.8438 134.086 28.5312 134.242 26.8359L128.219 36H123.93V22.8984H127.387ZM152.066 22.8984V25.582H147.777V36H144.203V25.582H139.902V22.8984H152.066ZM158.09 27.9609H160.609C162.625 27.9609 164.117 28.2812 165.086 28.9219C166.055 29.5625 166.539 30.5312 166.539 31.8281C166.539 34.6094 164.609 36 160.75 36H154.516V22.8984H158.09V27.9609ZM162.965 31.875C162.965 31.3672 162.762 31 162.355 30.7734C161.949 30.5469 161.344 30.4336 160.539 30.4336H158.09V33.5273H160.586C162.172 33.5273 162.965 32.9766 162.965 31.875Z" fill="white"/>
<rect x="1.5" y="1.5" width="200.411" height="53.9551" rx="26.9776" stroke="white" stroke-opacity="0.5" stroke-width="3"/>
</svg>
