<svg width="190" height="60" viewBox="0 0 190 60" fill="none" xmlns="http://www.w3.org/2000/svg">
<path d="M68.05 39V22.992H75.49C77.234 22.992 78.578 23.408 79.522 24.24C80.482 25.056 80.962 26.288 80.962 27.936C80.962 28.704 80.802 29.44 80.482 30.144C80.178 30.832 79.722 31.408 79.114 31.872C78.522 32.336 77.794 32.624 76.93 32.736L76.954 31.68L81.778 39H77.674L73.45 31.92L74.914 33.216H71.314V39H68.05ZM71.314 30.72H74.794C75.674 30.72 76.346 30.512 76.81 30.096C77.274 29.664 77.506 29 77.506 28.104C77.506 27.304 77.314 26.688 76.93 26.256C76.546 25.824 75.938 25.608 75.106 25.608H71.314V30.72ZM84.2266 39V25.66H93.1666V27.84H86.9466V31.22H92.3466V33.42H86.9466V36.82H93.1666V39H84.2266ZM99.8239 39L94.8039 25.66H97.9039L101.924 37.24H101.024L105.024 25.68L107.884 25.66L102.684 39H99.8239ZM109.676 39V25.66H112.396V39H109.676ZM115.398 39V25.66H124.338V27.84H118.118V31.22H123.518V33.42H118.118V36.82H124.338V39H115.398ZM130.076 39L126.176 25.66H129.136L131.896 36.52H131.396L134.576 25.66H136.776L140.016 36.68H139.436L142.216 25.66H145.176L141.276 39H138.576L135.396 28.76H135.956L132.776 39H130.076ZM147.176 39V25.66H156.116V27.84H149.896V31.22H155.296V33.42H149.896V36.82H156.116V39H147.176ZM158.953 39V25.66H165.153C166.606 25.66 167.726 26.0067 168.513 26.7C169.313 27.38 169.713 28.4067 169.713 29.78C169.713 30.42 169.58 31.0333 169.313 31.62C169.06 32.1933 168.68 32.6733 168.173 33.06C167.68 33.4467 167.073 33.6867 166.353 33.78L166.373 32.9L170.393 39H166.973L163.453 33.1L164.673 34.18H161.673V39H158.953ZM161.673 32.1H164.573C165.306 32.1 165.866 31.9267 166.253 31.58C166.64 31.22 166.833 30.6667 166.833 29.92C166.833 29.2533 166.673 28.74 166.353 28.38C166.033 28.02 165.526 27.84 164.833 27.84H161.673V32.1ZM176.964 39.24C176.284 39.24 175.677 39.2067 175.144 39.14C174.624 39.0733 174.144 38.9667 173.704 38.82C173.277 38.6733 172.844 38.4867 172.404 38.26V35.64C172.964 36.0933 173.617 36.4533 174.364 36.72C175.124 36.9733 175.897 37.1 176.684 37.1C177.404 37.1 177.944 36.96 178.304 36.68C178.677 36.3867 178.864 35.9667 178.864 35.42C178.864 35.0067 178.71 34.6733 178.404 34.42C178.11 34.1667 177.717 33.9467 177.224 33.76C176.73 33.5733 176.19 33.38 175.604 33.18C175.19 33.0333 174.784 32.8733 174.384 32.7C173.997 32.5133 173.644 32.28 173.324 32C173.017 31.72 172.77 31.3733 172.584 30.96C172.397 30.5333 172.304 30.0133 172.304 29.4C172.304 28.9067 172.397 28.42 172.584 27.94C172.77 27.46 173.057 27.0333 173.444 26.66C173.83 26.2733 174.33 25.9667 174.944 25.74C175.557 25.5133 176.29 25.4 177.144 25.4C177.677 25.4 178.144 25.4333 178.544 25.5C178.957 25.5667 179.35 25.6667 179.724 25.8C180.097 25.9333 180.484 26.1 180.884 26.3V28.92C180.564 28.6933 180.224 28.48 179.864 28.28C179.504 28.0667 179.117 27.8933 178.704 27.76C178.304 27.6267 177.87 27.5533 177.404 27.54C176.924 27.5267 176.51 27.58 176.164 27.7C175.817 27.82 175.55 28 175.364 28.24C175.177 28.48 175.084 28.7667 175.084 29.1C175.084 29.5133 175.197 29.8467 175.424 30.1C175.65 30.34 175.97 30.54 176.384 30.7C176.797 30.86 177.27 31.0267 177.804 31.2C178.324 31.36 178.81 31.54 179.264 31.74C179.73 31.9267 180.137 32.1667 180.484 32.46C180.844 32.7533 181.124 33.1133 181.324 33.54C181.537 33.9667 181.644 34.4867 181.644 35.1C181.644 35.8467 181.47 36.5333 181.124 37.16C180.777 37.7867 180.257 38.2933 179.564 38.68C178.884 39.0533 178.017 39.24 176.964 39.24Z" fill="white"/>
<path d="M51.8566 33.2414C51.4113 32.349 50.8545 31.4567 50.4091 30.4529C51.6339 28.3336 52.6361 26.2144 53.5269 23.9836C55.8652 17.4027 55.4198 12.0488 52.1907 8.81415C48.9616 5.57949 43.5055 5.13334 36.936 7.47567C34.709 8.25645 32.482 9.37185 30.4778 10.5988C21.6813 5.35641 13.3302 4.35256 8.87623 8.92569C4.4223 13.4988 5.31309 21.6412 10.5465 30.4529C10.1011 31.2336 9.65567 31.9029 9.32162 32.6837C5.20174 40.7145 4.75634 47.9646 8.87623 52.0916C10.9918 54.0993 13.7755 55.1032 16.5593 54.9916C20.5678 54.8801 24.465 53.7647 28.0281 51.757C29.921 50.7531 31.7026 49.7493 33.3728 48.5223C36.3792 46.4031 39.0516 44.1723 41.6126 41.6068C42.9488 40.2684 44.285 38.8184 45.5098 37.3683C46.0665 36.8106 46.5119 36.1414 46.9573 35.4722C47.4027 36.3645 47.8481 37.3683 48.1821 38.3722C48.1821 38.4837 48.2935 38.5953 48.2935 38.8184C48.9616 40.603 49.407 42.4992 49.407 44.3953C49.5183 45.7338 49.0729 47.1838 48.1821 48.1877C46.5119 49.8608 43.0601 49.8608 38.7175 48.2992C38.6062 48.2992 38.3835 48.1877 38.2722 48.1877C37.27 48.9685 36.2679 49.7493 35.3771 50.4185C34.5977 50.9762 33.9296 51.4224 33.1501 51.8685C34.375 52.5378 35.5998 52.9839 36.936 53.5416C39.2743 54.4339 41.8353 54.9916 44.3963 54.9916C45.8438 54.9916 47.2914 54.7685 48.7389 54.3224C49.9637 53.8762 51.1885 53.0954 52.0793 52.2031C55.3084 48.9685 55.8652 43.503 53.4155 37.0337C52.9701 35.6952 52.5247 34.4683 51.8566 33.2414ZM38.8289 12.6065C43.0601 11.0449 46.6233 11.0449 48.2935 12.718C49.9637 14.3911 49.9637 17.8489 48.4049 22.1989C47.9595 23.3143 47.5141 24.4297 46.9573 25.4336C45.2871 23.3143 43.5055 21.3066 41.6126 19.2989C40.3878 18.072 39.0516 16.845 37.7154 15.7296C36.936 15.0604 36.2679 14.5027 35.4884 13.945C36.6019 13.4988 37.7154 12.9411 38.8289 12.6065ZM12.6621 48.2992C10.8805 46.5146 10.9918 42.7222 12.8848 38.0376C13.2188 37.2568 13.5529 36.476 13.9982 35.5837C14.555 36.3645 15.2231 37.1453 15.8912 37.8145C17.0046 39.0414 18.1181 40.3799 19.343 41.6068C21.2359 43.503 23.2401 45.2877 25.3558 46.9608C24.465 47.4069 23.6855 47.7415 22.7948 48.0762C18.2295 49.9723 14.4436 50.0839 12.6621 48.2992ZM37.7154 37.8145C35.4884 40.0453 33.0388 42.1645 30.3664 43.9492C25.9125 40.8261 22.0153 37.1453 18.6749 32.7952C18.0068 32.0144 17.45 31.2336 17.0046 30.4529C18.7862 27.8875 20.9018 25.4336 23.1288 23.0912C24.799 21.4181 26.4692 19.9681 28.3622 18.5181C26.6919 17.4027 25.0217 16.3989 23.2401 15.6181C21.904 16.7335 20.5678 17.9604 19.343 19.1873C17.45 21.0835 15.6685 23.0912 13.9982 25.2105C11.1032 19.4104 10.6578 14.6142 12.6621 12.495C13.6642 11.6026 15.1117 11.1565 16.4479 11.268C21.5699 11.268 30.0324 15.2835 37.7154 22.9797C39.9424 25.2105 42.058 27.6644 43.8396 30.2298C43.3942 30.899 42.9488 31.5683 42.392 32.2375C40.9445 34.3568 39.3856 36.1414 37.7154 37.8145Z" fill="white"/>
</svg>
