<svg width="165" height="50" viewBox="0 0 165 50" fill="none" xmlns="http://www.w3.org/2000/svg">
<rect width="165" height="50" rx="25" fill="#B0B0B0"/>
<path d="M26.13 30.18C25.25 30.18 24.475 29.975 23.805 29.565C23.145 29.155 22.625 28.57 22.245 27.81C21.875 27.04 21.69 26.125 21.69 25.065C21.69 23.995 21.875 23.09 22.245 22.35C22.625 21.6 23.145 21.03 23.805 20.64C24.475 20.24 25.25 20.04 26.13 20.04C27.01 20.04 27.78 20.24 28.44 20.64C29.11 21.03 29.63 21.6 30 22.35C30.38 23.1 30.57 24.005 30.57 25.065C30.57 26.125 30.38 27.04 30 27.81C29.63 28.57 29.11 29.155 28.44 29.565C27.78 29.975 27.01 30.18 26.13 30.18ZM26.13 28.275C26.8 28.275 27.33 27.985 27.72 27.405C28.11 26.825 28.305 26.045 28.305 25.065C28.305 24.085 28.11 23.32 27.72 22.77C27.33 22.22 26.8 21.945 26.13 21.945C25.46 21.945 24.93 22.22 24.54 22.77C24.15 23.32 23.955 24.085 23.955 25.065C23.955 26.045 24.15 26.825 24.54 27.405C24.93 27.985 25.46 28.275 26.13 28.275ZM31.7789 30V22.56H38.4389V30H36.2339V24.285H33.9839V30H31.7789ZM39.9422 32.76V22.56H41.7422L41.8922 23.295H41.9522C42.2422 23.035 42.5672 22.82 42.9272 22.65C43.2972 22.47 43.6772 22.38 44.0672 22.38C44.9672 22.38 45.6772 22.725 46.1972 23.415C46.7172 24.095 46.9772 25.01 46.9772 26.16C46.9772 27.01 46.8272 27.735 46.5272 28.335C46.2272 28.935 45.8372 29.395 45.3572 29.715C44.8872 30.025 44.3822 30.18 43.8422 30.18C43.5222 30.18 43.2122 30.115 42.9122 29.985C42.6122 29.845 42.3322 29.65 42.0722 29.4L42.1472 30.585V32.76H39.9422ZM43.3322 28.38C43.7122 28.38 44.0372 28.205 44.3072 27.855C44.5772 27.505 44.7122 26.95 44.7122 26.19C44.7122 24.85 44.2822 24.18 43.4222 24.18C42.9922 24.18 42.5672 24.405 42.1472 24.855V27.9C42.3472 28.08 42.5472 28.205 42.7472 28.275C42.9472 28.345 43.1422 28.38 43.3322 28.38ZM51.2858 30.18C50.6558 30.18 50.0608 30.03 49.5008 29.73C48.9508 29.42 48.5058 28.975 48.1658 28.395C47.8258 27.805 47.6558 27.1 47.6558 26.28C47.6558 25.45 47.8258 24.745 48.1658 24.165C48.5058 23.585 48.9508 23.145 49.5008 22.845C50.0608 22.535 50.6558 22.38 51.2858 22.38C51.9158 22.38 52.5058 22.535 53.0558 22.845C53.6058 23.145 54.0508 23.585 54.3908 24.165C54.7308 24.745 54.9008 25.45 54.9008 26.28C54.9008 27.1 54.7308 27.805 54.3908 28.395C54.0508 28.975 53.6058 29.42 53.0558 29.73C52.5058 30.03 51.9158 30.18 51.2858 30.18ZM51.2858 28.395C51.7358 28.395 52.0758 28.205 52.3058 27.825C52.5358 27.435 52.6508 26.92 52.6508 26.28C52.6508 25.63 52.5358 25.115 52.3058 24.735C52.0758 24.355 51.7358 24.165 51.2858 24.165C50.8258 24.165 50.4808 24.355 50.2508 24.735C50.0308 25.115 49.9208 25.63 49.9208 26.28C49.9208 26.92 50.0308 27.435 50.2508 27.825C50.4808 28.205 50.8258 28.395 51.2858 28.395ZM57.7311 25.875C57.7311 26.725 57.8661 27.36 58.1361 27.78C58.4061 28.19 58.7861 28.395 59.2761 28.395C59.6861 28.395 59.9961 28.215 60.2061 27.855C60.4261 27.485 60.5361 26.99 60.5361 26.37C60.5361 25.71 60.4211 25.245 60.1911 24.975C59.9611 24.695 59.6511 24.555 59.2611 24.555C59.0111 24.555 58.7511 24.625 58.4811 24.765C58.2111 24.895 57.9611 25.125 57.7311 25.455C57.7311 25.525 57.7311 25.595 57.7311 25.665C57.7311 25.725 57.7311 25.795 57.7311 25.875ZM59.3061 30.18C58.1261 30.18 57.2161 29.755 56.5761 28.905C55.9361 28.055 55.6161 26.87 55.6161 25.35C55.6161 24.23 55.7311 23.31 55.9611 22.59C56.1911 21.87 56.5111 21.3 56.9211 20.88C57.3411 20.46 57.8361 20.145 58.4061 19.935C58.9861 19.725 59.6211 19.575 60.3111 19.485C60.7611 19.425 61.1111 19.365 61.3611 19.305C61.6211 19.235 61.8661 19.15 62.0961 19.05L62.5161 20.97C62.3261 21.12 62.0711 21.24 61.7511 21.33C61.4311 21.41 61.1061 21.475 60.7761 21.525C60.2561 21.595 59.8161 21.665 59.4561 21.735C59.0961 21.805 58.8011 21.915 58.5711 22.065C58.3511 22.205 58.1811 22.415 58.0611 22.695C57.9411 22.975 57.8561 23.36 57.8061 23.85C58.0661 23.55 58.3811 23.325 58.7511 23.175C59.1311 23.015 59.5211 22.935 59.9211 22.935C60.4411 22.935 60.9161 23.065 61.3461 23.325C61.7861 23.575 62.1361 23.955 62.3961 24.465C62.6561 24.975 62.7861 25.61 62.7861 26.37C62.7861 27.13 62.6361 27.8 62.3361 28.38C62.0361 28.95 61.6211 29.395 61.0911 29.715C60.5711 30.025 59.9761 30.18 59.3061 30.18ZM67.1143 30.18C66.4843 30.18 65.8893 30.03 65.3293 29.73C64.7793 29.42 64.3343 28.975 63.9943 28.395C63.6543 27.805 63.4843 27.1 63.4843 26.28C63.4843 25.45 63.6543 24.745 63.9943 24.165C64.3343 23.585 64.7793 23.145 65.3293 22.845C65.8893 22.535 66.4843 22.38 67.1143 22.38C67.7443 22.38 68.3343 22.535 68.8843 22.845C69.4343 23.145 69.8793 23.585 70.2193 24.165C70.5593 24.745 70.7293 25.45 70.7293 26.28C70.7293 27.1 70.5593 27.805 70.2193 28.395C69.8793 28.975 69.4343 29.42 68.8843 29.73C68.3343 30.03 67.7443 30.18 67.1143 30.18ZM67.1143 28.395C67.5643 28.395 67.9043 28.205 68.1343 27.825C68.3643 27.435 68.4793 26.92 68.4793 26.28C68.4793 25.63 68.3643 25.115 68.1343 24.735C67.9043 24.355 67.5643 24.165 67.1143 24.165C66.6543 24.165 66.3093 24.355 66.0793 24.735C65.8593 25.115 65.7493 25.63 65.7493 26.28C65.7493 26.92 65.8593 27.435 66.0793 27.825C66.3093 28.205 66.6543 28.395 67.1143 28.395ZM71.7896 30V22.56H74.9546C75.5146 22.56 76.0196 22.62 76.4696 22.74C76.9196 22.86 77.2746 23.065 77.5346 23.355C77.8046 23.635 77.9396 24.025 77.9396 24.525C77.9396 24.835 77.8396 25.14 77.6396 25.44C77.4496 25.73 77.1346 25.935 76.6946 26.055V26.115C77.1646 26.225 77.5346 26.42 77.8046 26.7C78.0846 26.97 78.2246 27.355 78.2246 27.855C78.2246 28.365 78.0846 28.78 77.8046 29.1C77.5246 29.41 77.1496 29.64 76.6796 29.79C76.2196 29.93 75.7046 30 75.1346 30H71.7896ZM73.9346 25.47H74.8046C75.1746 25.47 75.4396 25.405 75.5996 25.275C75.7596 25.145 75.8396 24.97 75.8396 24.75C75.8396 24.52 75.7596 24.34 75.5996 24.21C75.4496 24.08 75.1896 24.015 74.8196 24.015H73.9346V25.47ZM73.9346 28.545H74.9996C75.3996 28.545 75.6796 28.47 75.8396 28.32C76.0096 28.16 76.0946 27.955 76.0946 27.705C76.0946 27.485 76.0046 27.3 75.8246 27.15C75.6546 27 75.3746 26.925 74.9846 26.925H73.9346V28.545ZM81.1395 30.18C80.4595 30.18 79.9195 29.965 79.5195 29.535C79.1195 29.095 78.9195 28.56 78.9195 27.93C78.9195 27.15 79.2495 26.54 79.9095 26.1C80.5695 25.66 81.6345 25.365 83.1045 25.215C83.0845 24.885 82.9845 24.625 82.8045 24.435C82.6345 24.235 82.3445 24.135 81.9345 24.135C81.6245 24.135 81.3095 24.195 80.9895 24.315C80.6695 24.435 80.3295 24.6 79.9695 24.81L79.1745 23.355C79.6445 23.065 80.1445 22.83 80.6745 22.65C81.2145 22.47 81.7745 22.38 82.3545 22.38C83.3045 22.38 84.0345 22.655 84.5445 23.205C85.0545 23.755 85.3095 24.6 85.3095 25.74V30H83.5095L83.3595 29.235H83.2995C82.9895 29.515 82.6545 29.745 82.2945 29.925C81.9445 30.095 81.5595 30.18 81.1395 30.18ZM81.8895 28.47C82.1395 28.47 82.3545 28.415 82.5345 28.305C82.7245 28.185 82.9145 28.03 83.1045 27.84V26.535C82.3245 26.635 81.7845 26.795 81.4845 27.015C81.1845 27.225 81.0345 27.475 81.0345 27.765C81.0345 28.005 81.1095 28.185 81.2595 28.305C81.4195 28.415 81.6295 28.47 81.8895 28.47ZM88.0659 30V24.285H85.8759V22.56H92.4759V24.285H90.2709V30H88.0659ZM93.3937 30V22.56H95.5987V24.93H96.4237C97.0337 24.93 97.5787 25.01 98.0587 25.17C98.5387 25.33 98.9187 25.595 99.1987 25.965C99.4787 26.325 99.6187 26.815 99.6187 27.435C99.6187 28.075 99.4787 28.585 99.1987 28.965C98.9187 29.335 98.5387 29.6 98.0587 29.76C97.5787 29.92 97.0337 30 96.4237 30H93.3937ZM95.5987 28.32H96.3337C97.1137 28.32 97.5037 28.02 97.5037 27.42C97.5037 26.85 97.1137 26.565 96.3337 26.565H95.5987V28.32ZM103.231 30V22.56H105.436V25.305H106.186L106.846 23.94C107.156 23.3 107.491 22.88 107.851 22.68C108.221 22.48 108.671 22.38 109.201 22.38C109.421 22.38 109.621 22.415 109.801 22.485L109.456 24.525C109.416 24.505 109.371 24.49 109.321 24.48C109.271 24.47 109.221 24.465 109.171 24.465C108.981 24.465 108.811 24.51 108.661 24.6C108.511 24.69 108.366 24.895 108.226 25.215L107.836 26.1L110.341 30H107.926L106.216 27.03H105.436V30H103.231ZM112.698 30.18C112.018 30.18 111.478 29.965 111.078 29.535C110.678 29.095 110.478 28.56 110.478 27.93C110.478 27.15 110.808 26.54 111.468 26.1C112.128 25.66 113.193 25.365 114.663 25.215C114.643 24.885 114.543 24.625 114.363 24.435C114.193 24.235 113.903 24.135 113.493 24.135C113.183 24.135 112.868 24.195 112.548 24.315C112.228 24.435 111.888 24.6 111.528 24.81L110.733 23.355C111.203 23.065 111.703 22.83 112.233 22.65C112.773 22.47 113.333 22.38 113.913 22.38C114.863 22.38 115.593 22.655 116.103 23.205C116.613 23.755 116.868 24.6 116.868 25.74V30H115.068L114.918 29.235H114.858C114.548 29.515 114.213 29.745 113.853 29.925C113.503 30.095 113.118 30.18 112.698 30.18ZM113.448 28.47C113.698 28.47 113.913 28.415 114.093 28.305C114.283 28.185 114.473 28.03 114.663 27.84V26.535C113.883 26.635 113.343 26.795 113.043 27.015C112.743 27.225 112.593 27.475 112.593 27.765C112.593 28.005 112.668 28.185 112.818 28.305C112.978 28.415 113.188 28.47 113.448 28.47ZM118.283 32.76V22.56H120.083L120.233 23.295H120.293C120.583 23.035 120.908 22.82 121.268 22.65C121.638 22.47 122.018 22.38 122.408 22.38C123.308 22.38 124.018 22.725 124.538 23.415C125.058 24.095 125.318 25.01 125.318 26.16C125.318 27.01 125.168 27.735 124.868 28.335C124.568 28.935 124.178 29.395 123.698 29.715C123.228 30.025 122.723 30.18 122.183 30.18C121.863 30.18 121.553 30.115 121.253 29.985C120.953 29.845 120.673 29.65 120.413 29.4L120.488 30.585V32.76H118.283ZM121.673 28.38C122.053 28.38 122.378 28.205 122.648 27.855C122.918 27.505 123.053 26.95 123.053 26.19C123.053 24.85 122.623 24.18 121.763 24.18C121.333 24.18 120.908 24.405 120.488 24.855V27.9C120.688 28.08 120.888 28.205 121.088 28.275C121.288 28.345 121.483 28.38 121.673 28.38ZM127.641 30V24.285H125.451V22.56H132.051V24.285H129.846V30H127.641ZM132.969 30V22.56H135.174V24.93H135.714C136.314 24.93 136.854 25.01 137.334 25.17C137.824 25.33 138.209 25.595 138.489 25.965C138.769 26.325 138.909 26.815 138.909 27.435C138.909 28.075 138.769 28.585 138.489 28.965C138.209 29.335 137.824 29.6 137.334 29.76C136.854 29.92 136.314 30 135.714 30H132.969ZM135.174 28.32H135.609C136.399 28.32 136.794 28.02 136.794 27.42C136.794 26.85 136.399 26.565 135.609 26.565H135.174V28.32ZM139.899 30V22.56H142.104V30H139.899Z" fill="#8D8D8D"/>
</svg>
