<svg width="165" height="50" viewBox="0 0 165 50" fill="none" xmlns="http://www.w3.org/2000/svg">
<rect width="165" height="50" rx="25" fill="white"/>
<path d="M26.13 30.18C25.47 30.18 24.865 30.065 24.315 29.835C23.775 29.595 23.31 29.255 22.92 28.815C22.53 28.375 22.225 27.84 22.005 27.21C21.795 26.58 21.69 25.865 21.69 25.065C21.69 24.265 21.795 23.555 22.005 22.935C22.225 22.305 22.53 21.78 22.92 21.36C23.31 20.93 23.775 20.605 24.315 20.385C24.865 20.155 25.47 20.04 26.13 20.04C26.79 20.04 27.39 20.155 27.93 20.385C28.48 20.605 28.95 20.93 29.34 21.36C29.73 21.79 30.03 22.32 30.24 22.95C30.46 23.57 30.57 24.275 30.57 25.065C30.57 25.865 30.46 26.58 30.24 27.21C30.03 27.84 29.73 28.375 29.34 28.815C28.95 29.255 28.48 29.595 27.93 29.835C27.39 30.065 26.79 30.18 26.13 30.18ZM26.13 28.275C26.8 28.275 27.33 27.99 27.72 27.42C28.11 26.84 28.305 26.055 28.305 25.065C28.305 24.085 28.11 23.32 27.72 22.77C27.33 22.22 26.8 21.945 26.13 21.945C25.46 21.945 24.93 22.22 24.54 22.77C24.15 23.32 23.955 24.085 23.955 25.065C23.955 26.055 24.15 26.84 24.54 27.42C24.93 27.99 25.46 28.275 26.13 28.275ZM31.7789 30V22.56H38.4389V30H36.2339V24.285H33.9839V30H31.7789ZM39.9422 32.76V22.56H41.7422L41.8922 23.295H41.9522C42.2422 23.035 42.5672 22.82 42.9272 22.65C43.2972 22.47 43.6772 22.38 44.0672 22.38C44.5172 22.38 44.9222 22.47 45.2822 22.65C45.6422 22.83 45.9472 23.085 46.1972 23.415C46.4472 23.745 46.6372 24.145 46.7672 24.615C46.9072 25.075 46.9772 25.59 46.9772 26.16C46.9772 26.8 46.8872 27.37 46.7072 27.87C46.5372 28.36 46.3022 28.78 46.0022 29.13C45.7122 29.47 45.3772 29.73 44.9972 29.91C44.6272 30.09 44.2422 30.18 43.8422 30.18C43.5222 30.18 43.2122 30.115 42.9122 29.985C42.6122 29.845 42.3322 29.65 42.0722 29.4L42.1472 30.585V32.76H39.9422ZM43.3322 28.38C43.7122 28.38 44.0372 28.21 44.3072 27.87C44.5772 27.52 44.7122 26.96 44.7122 26.19C44.7122 24.85 44.2822 24.18 43.4222 24.18C42.9922 24.18 42.5672 24.405 42.1472 24.855V27.9C42.3472 28.08 42.5472 28.205 42.7472 28.275C42.9472 28.345 43.1422 28.38 43.3322 28.38ZM51.2858 30.18C50.8158 30.18 50.3608 30.095 49.9208 29.925C49.4808 29.745 49.0908 29.49 48.7508 29.16C48.4208 28.83 48.1558 28.425 47.9558 27.945C47.7558 27.455 47.6558 26.9 47.6558 26.28C47.6558 25.66 47.7558 25.11 47.9558 24.63C48.1558 24.14 48.4208 23.73 48.7508 23.4C49.0908 23.07 49.4808 22.82 49.9208 22.65C50.3608 22.47 50.8158 22.38 51.2858 22.38C51.7558 22.38 52.2058 22.47 52.6358 22.65C53.0758 22.82 53.4608 23.07 53.7908 23.4C54.1308 23.73 54.4008 24.14 54.6008 24.63C54.8008 25.11 54.9008 25.66 54.9008 26.28C54.9008 26.9 54.8008 27.455 54.6008 27.945C54.4008 28.425 54.1308 28.83 53.7908 29.16C53.4608 29.49 53.0758 29.745 52.6358 29.925C52.2058 30.095 51.7558 30.18 51.2858 30.18ZM51.2858 28.395C51.7358 28.395 52.0758 28.205 52.3058 27.825C52.5358 27.445 52.6508 26.93 52.6508 26.28C52.6508 25.63 52.5358 25.115 52.3058 24.735C52.0758 24.355 51.7358 24.165 51.2858 24.165C50.8258 24.165 50.4808 24.355 50.2508 24.735C50.0308 25.115 49.9208 25.63 49.9208 26.28C49.9208 26.93 50.0308 27.445 50.2508 27.825C50.4808 28.205 50.8258 28.395 51.2858 28.395ZM59.3061 30.18C58.1161 30.18 57.2011 29.76 56.5611 28.92C55.9311 28.07 55.6161 26.88 55.6161 25.35C55.6161 24.23 55.7311 23.315 55.9611 22.605C56.1911 21.885 56.5111 21.31 56.9211 20.88C57.3411 20.45 57.8361 20.135 58.4061 19.935C58.9861 19.725 59.6211 19.575 60.3111 19.485C60.7611 19.425 61.1111 19.365 61.3611 19.305C61.6211 19.245 61.8661 19.16 62.0961 19.05L62.5161 20.97C62.3161 21.12 62.0561 21.24 61.7361 21.33C61.4261 21.41 61.1061 21.475 60.7761 21.525C60.2561 21.595 59.8161 21.665 59.4561 21.735C59.1061 21.805 58.8161 21.915 58.5861 22.065C58.3561 22.215 58.1811 22.43 58.0611 22.71C57.9411 22.98 57.8561 23.36 57.8061 23.85C58.0661 23.55 58.3811 23.325 58.7511 23.175C59.1211 23.015 59.5111 22.935 59.9211 22.935C60.3111 22.935 60.6761 23.01 61.0161 23.16C61.3661 23.3 61.6711 23.515 61.9311 23.805C62.2011 24.085 62.4111 24.44 62.5611 24.87C62.7111 25.3 62.7861 25.8 62.7861 26.37C62.7861 26.94 62.6961 27.46 62.5161 27.93C62.3461 28.4 62.1061 28.805 61.7961 29.145C61.4861 29.475 61.1161 29.73 60.6861 29.91C60.2661 30.09 59.8061 30.18 59.3061 30.18ZM59.2761 28.395C59.6861 28.395 59.9961 28.215 60.2061 27.855C60.4261 27.495 60.5361 27 60.5361 26.37C60.5361 25.71 60.4211 25.245 60.1911 24.975C59.9611 24.695 59.6511 24.555 59.2611 24.555C59.0011 24.555 58.7361 24.625 58.4661 24.765C58.2061 24.895 57.9611 25.125 57.7311 25.455V25.875C57.7311 26.735 57.8661 27.37 58.1361 27.78C58.4061 28.19 58.7861 28.395 59.2761 28.395ZM67.1143 30.18C66.6443 30.18 66.1893 30.095 65.7493 29.925C65.3093 29.745 64.9193 29.49 64.5793 29.16C64.2493 28.83 63.9843 28.425 63.7843 27.945C63.5843 27.455 63.4843 26.9 63.4843 26.28C63.4843 25.66 63.5843 25.11 63.7843 24.63C63.9843 24.14 64.2493 23.73 64.5793 23.4C64.9193 23.07 65.3093 22.82 65.7493 22.65C66.1893 22.47 66.6443 22.38 67.1143 22.38C67.5843 22.38 68.0343 22.47 68.4643 22.65C68.9043 22.82 69.2893 23.07 69.6193 23.4C69.9593 23.73 70.2293 24.14 70.4293 24.63C70.6293 25.11 70.7293 25.66 70.7293 26.28C70.7293 26.9 70.6293 27.455 70.4293 27.945C70.2293 28.425 69.9593 28.83 69.6193 29.16C69.2893 29.49 68.9043 29.745 68.4643 29.925C68.0343 30.095 67.5843 30.18 67.1143 30.18ZM67.1143 28.395C67.5643 28.395 67.9043 28.205 68.1343 27.825C68.3643 27.445 68.4793 26.93 68.4793 26.28C68.4793 25.63 68.3643 25.115 68.1343 24.735C67.9043 24.355 67.5643 24.165 67.1143 24.165C66.6543 24.165 66.3093 24.355 66.0793 24.735C65.8593 25.115 65.7493 25.63 65.7493 26.28C65.7493 26.93 65.8593 27.445 66.0793 27.825C66.3093 28.205 66.6543 28.395 67.1143 28.395ZM71.7896 30V22.56H74.9546C75.3746 22.56 75.7646 22.595 76.1246 22.665C76.4846 22.725 76.7996 22.835 77.0696 22.995C77.3396 23.145 77.5496 23.345 77.6996 23.595C77.8596 23.845 77.9396 24.155 77.9396 24.525C77.9396 24.845 77.8446 25.15 77.6546 25.44C77.4646 25.73 77.1446 25.935 76.6946 26.055V26.115C77.1646 26.225 77.5346 26.415 77.8046 26.685C78.0846 26.955 78.2246 27.345 78.2246 27.855C78.2246 28.235 78.1396 28.565 77.9696 28.845C77.8096 29.115 77.5896 29.335 77.3096 29.505C77.0296 29.675 76.6996 29.8 76.3196 29.88C75.9496 29.96 75.5546 30 75.1346 30H71.7896ZM73.9346 25.47H74.8046C75.1746 25.47 75.4396 25.41 75.5996 25.29C75.7596 25.16 75.8396 24.98 75.8396 24.75C75.8396 24.52 75.7596 24.34 75.5996 24.21C75.4496 24.08 75.1896 24.015 74.8196 24.015H73.9346V25.47ZM73.9346 28.545H74.9996C75.3996 28.545 75.6796 28.47 75.8396 28.32C76.0096 28.16 76.0946 27.955 76.0946 27.705C76.0946 27.485 76.0046 27.3 75.8246 27.15C75.6546 27 75.3746 26.925 74.9846 26.925H73.9346V28.545ZM81.1395 30.18C80.7995 30.18 80.4895 30.12 80.2095 30C79.9395 29.89 79.7095 29.735 79.5195 29.535C79.3295 29.325 79.1795 29.085 79.0695 28.815C78.9695 28.545 78.9195 28.25 78.9195 27.93C78.9195 27.15 79.2495 26.54 79.9095 26.1C80.5695 25.66 81.6345 25.365 83.1045 25.215C83.0845 24.885 82.9845 24.625 82.8045 24.435C82.6345 24.235 82.3445 24.135 81.9345 24.135C81.6145 24.135 81.2945 24.195 80.9745 24.315C80.6645 24.435 80.3295 24.6 79.9695 24.81L79.1745 23.355C79.6545 23.065 80.1545 22.83 80.6745 22.65C81.2045 22.47 81.7645 22.38 82.3545 22.38C83.3145 22.38 84.0445 22.655 84.5445 23.205C85.0545 23.745 85.3095 24.59 85.3095 25.74V30H83.5095L83.3595 29.235H83.2995C82.9795 29.515 82.6445 29.745 82.2945 29.925C81.9445 30.095 81.5595 30.18 81.1395 30.18ZM81.8895 28.47C82.1395 28.47 82.3545 28.415 82.5345 28.305C82.7145 28.195 82.9045 28.04 83.1045 27.84V26.535C82.3245 26.645 81.7845 26.805 81.4845 27.015C81.1845 27.225 81.0345 27.475 81.0345 27.765C81.0345 28.005 81.1095 28.185 81.2595 28.305C81.4195 28.415 81.6295 28.47 81.8895 28.47ZM88.0659 30V24.285H85.8759V22.56H92.4759V24.285H90.2709V30H88.0659ZM93.3937 30V22.56H95.5987V24.93H96.4237C96.8737 24.93 97.2937 24.975 97.6837 25.065C98.0737 25.145 98.4087 25.285 98.6887 25.485C98.9787 25.685 99.2037 25.945 99.3637 26.265C99.5337 26.585 99.6187 26.975 99.6187 27.435C99.6187 27.915 99.5337 28.32 99.3637 28.65C99.2037 28.97 98.9787 29.235 98.6887 29.445C98.4087 29.645 98.0737 29.79 97.6837 29.88C97.2937 29.96 96.8737 30 96.4237 30H93.3937ZM95.5987 28.32H96.3337C97.1137 28.32 97.5037 28.02 97.5037 27.42C97.5037 26.85 97.1137 26.565 96.3337 26.565H95.5987V28.32ZM103.231 30V22.56H105.436V25.305H106.201L106.846 23.94C106.996 23.63 107.151 23.375 107.311 23.175C107.471 22.965 107.646 22.805 107.836 22.695C108.036 22.575 108.246 22.495 108.466 22.455C108.686 22.405 108.931 22.38 109.201 22.38C109.421 22.38 109.621 22.415 109.801 22.485L109.456 24.525C109.406 24.505 109.356 24.49 109.306 24.48C109.266 24.47 109.221 24.465 109.171 24.465C108.981 24.465 108.811 24.51 108.661 24.6C108.511 24.69 108.366 24.895 108.226 25.215L107.836 26.1L110.341 30H107.926L106.216 27.03H105.436V30H103.231ZM112.698 30.18C112.358 30.18 112.048 30.12 111.768 30C111.498 29.89 111.268 29.735 111.078 29.535C110.888 29.325 110.738 29.085 110.628 28.815C110.528 28.545 110.478 28.25 110.478 27.93C110.478 27.15 110.808 26.54 111.468 26.1C112.128 25.66 113.193 25.365 114.663 25.215C114.643 24.885 114.543 24.625 114.363 24.435C114.193 24.235 113.903 24.135 113.493 24.135C113.173 24.135 112.853 24.195 112.533 24.315C112.223 24.435 111.888 24.6 111.528 24.81L110.733 23.355C111.213 23.065 111.713 22.83 112.233 22.65C112.763 22.47 113.323 22.38 113.913 22.38C114.873 22.38 115.603 22.655 116.103 23.205C116.613 23.745 116.868 24.59 116.868 25.74V30H115.068L114.918 29.235H114.858C114.538 29.515 114.203 29.745 113.853 29.925C113.503 30.095 113.118 30.18 112.698 30.18ZM113.448 28.47C113.698 28.47 113.913 28.415 114.093 28.305C114.273 28.195 114.463 28.04 114.663 27.84V26.535C113.883 26.645 113.343 26.805 113.043 27.015C112.743 27.225 112.593 27.475 112.593 27.765C112.593 28.005 112.668 28.185 112.818 28.305C112.978 28.415 113.188 28.47 113.448 28.47ZM118.283 32.76V22.56H120.083L120.233 23.295H120.293C120.583 23.035 120.908 22.82 121.268 22.65C121.638 22.47 122.018 22.38 122.408 22.38C122.858 22.38 123.263 22.47 123.623 22.65C123.983 22.83 124.288 23.085 124.538 23.415C124.788 23.745 124.978 24.145 125.108 24.615C125.248 25.075 125.318 25.59 125.318 26.16C125.318 26.8 125.228 27.37 125.048 27.87C124.878 28.36 124.643 28.78 124.343 29.13C124.053 29.47 123.718 29.73 123.338 29.91C122.968 30.09 122.583 30.18 122.183 30.18C121.863 30.18 121.553 30.115 121.253 29.985C120.953 29.845 120.673 29.65 120.413 29.4L120.488 30.585V32.76H118.283ZM121.673 28.38C122.053 28.38 122.378 28.21 122.648 27.87C122.918 27.52 123.053 26.96 123.053 26.19C123.053 24.85 122.623 24.18 121.763 24.18C121.333 24.18 120.908 24.405 120.488 24.855V27.9C120.688 28.08 120.888 28.205 121.088 28.275C121.288 28.345 121.483 28.38 121.673 28.38ZM127.641 30V24.285H125.451V22.56H132.051V24.285H129.846V30H127.641ZM132.969 30V22.56H135.174V24.93H135.714C136.164 24.93 136.584 24.975 136.974 25.065C137.364 25.145 137.699 25.285 137.979 25.485C138.269 25.685 138.494 25.945 138.654 26.265C138.824 26.585 138.909 26.975 138.909 27.435C138.909 27.915 138.824 28.32 138.654 28.65C138.494 28.97 138.269 29.235 137.979 29.445C137.699 29.645 137.364 29.79 136.974 29.88C136.584 29.96 136.164 30 135.714 30H132.969ZM135.174 28.32H135.609C136.399 28.32 136.794 28.02 136.794 27.42C136.794 26.85 136.399 26.565 135.609 26.565H135.174V28.32ZM139.899 30V22.56H142.104V30H139.899Z" fill="#707070"/>
</svg>
