<svg width="569" height="76" viewBox="0 0 569 76" fill="none" xmlns="http://www.w3.org/2000/svg">
<path fill-rule="evenodd" clip-rule="evenodd" d="M43.1094 45.3281V72H28.6719V45.7969L5.93752 3.46875H21.6875L35.8906 31.6875L50.1875 3.46875H65.8438L43.1094 45.3281ZM35.8995 25.0322L23.5361 0.46875H0.920898L25.6719 46.5515V75H46.1094V46.0902L70.887 0.46875H48.3444L35.8995 25.0322ZM101.275 55.9148L101.28 55.9069C102.522 53.9529 103.344 50.6883 103.344 45.7031C103.344 40.7451 102.52 37.5457 101.298 35.6673C100.301 34.1353 98.6249 33.1406 95.5156 33.1406C92.4486 33.1406 90.7818 34.1279 89.7803 35.6673L89.7757 35.6743L89.7712 35.6812C88.5612 37.5185 87.7344 40.7051 87.7344 45.7031C87.7344 50.644 88.5522 53.8922 89.7912 55.8495C90.8336 57.4535 92.5383 58.4531 95.6094 58.4531C98.663 58.4531 100.299 57.4621 101.275 55.9148ZM80.6176 72.259L80.6096 72.2545C76.2361 69.7299 72.8812 66.1113 70.5667 61.4823C68.2595 56.8678 67.1563 51.5799 67.1563 45.7031C67.1563 36.6227 69.5349 29.1417 74.6744 23.6787C79.8413 18.1866 86.9952 15.6094 95.7031 15.6094C101.182 15.6094 106.144 16.8047 110.5 19.2833C114.876 21.7742 118.236 25.3616 120.554 29.9627C122.866 34.5508 123.969 39.8271 123.969 45.7031C123.969 54.7634 121.569 62.2506 116.41 67.7677C111.222 73.3165 104.088 75.9375 95.4219 75.9375C89.9431 75.9375 84.9808 74.7422 80.6255 72.2636L80.6176 72.259ZM167.646 75L166.44 70.7944C165.138 71.9294 163.658 72.8893 162.012 73.6757L162 73.6815L161.987 73.6873C158.72 75.2123 155.073 75.9375 151.109 75.9375C144.437 75.9375 138.887 74.1497 135.015 70.0846L135.01 70.0795L135.005 70.0743C131.191 66.0306 129.5 60.4393 129.5 53.7656V16.5938H149.797V50.2031C149.797 53.7072 150.433 55.8201 151.258 56.996C151.887 57.8686 152.978 58.5469 155.234 58.5469C158.514 58.5469 160.328 57.5088 161.411 55.8975C162.68 53.9764 163.578 50.2965 163.578 44.25V16.5938H183.875V75H167.646ZM163.906 57.5625C162.125 60.2188 159.234 61.5469 155.234 61.5469C152.297 61.5469 150.156 60.6094 148.813 58.7344C147.469 56.8281 146.797 53.9844 146.797 50.2031V19.5938H132.5V53.7656C132.5 59.9531 134.063 64.7031 137.188 68.0156C140.313 71.2969 144.953 72.9375 151.109 72.9375C154.703 72.9375 157.906 72.2812 160.719 70.9688C162.601 70.0693 164.197 68.9249 165.505 67.5354C166.081 66.9245 166.601 66.2662 167.065 65.5605C167.122 65.4734 167.179 65.3855 167.234 65.2969H167.984L169.906 72H180.875V19.5938H166.578V44.25C166.578 50.4375 165.688 54.875 163.906 57.5625ZM233.153 16.6623L231.576 36.2752L228.092 35.3336C227.268 35.1107 226.141 34.9688 224.656 34.9688C220.607 34.9688 217.854 35.9998 216 37.6923C214.219 39.3448 213.172 41.7492 213.172 45.3281V75H192.875V16.5938H209.07L210.401 22.1541C211.604 20.8945 212.952 19.779 214.444 18.8123C217.7 16.6911 221.282 15.6094 225.125 15.6094C227.187 15.6094 229.03 15.7571 230.596 16.101L233.153 16.6623ZM216.078 21.3281C214.214 22.5356 212.608 24.0088 211.261 25.7477C210.665 26.5171 210.119 27.3385 209.624 28.2119C209.588 28.2764 209.552 28.3412 209.516 28.4062H208.813L206.703 19.5938H195.875V72H210.172V45.3281C210.172 41.1094 211.438 37.8281 213.969 35.4844C216.531 33.1406 220.094 31.9688 224.656 31.9688C225.088 31.9688 225.503 31.9794 225.9 32.0006C227.029 32.0608 228.02 32.2065 228.875 32.4375L229.953 19.0312C228.672 18.75 227.063 18.6094 225.125 18.6094C221.875 18.6094 218.859 19.5156 216.078 21.3281ZM301.685 16.6623L300.107 36.2752L296.624 35.3336C295.799 35.1107 294.672 34.9688 293.188 34.9688C289.139 34.9688 286.387 35.9991 284.533 37.6906C282.751 39.3431 281.703 41.748 281.703 45.3281V75H261.406V16.5938H277.601L278.932 22.1541C280.135 20.8946 281.483 19.7791 282.975 18.8124C286.231 16.6911 289.813 15.6094 293.656 15.6094C295.718 15.6094 297.561 15.7571 299.128 16.101L301.685 16.6623ZM284.609 21.3281C282.745 22.5356 281.139 24.0089 279.792 25.7477C279.196 26.5171 278.651 27.3385 278.156 28.2119C278.119 28.2764 278.083 28.3412 278.047 28.4062H277.344L275.234 19.5938H264.406V72H278.703V45.3281C278.703 41.1094 279.969 37.8281 282.5 35.4844C285.063 33.1406 288.625 31.9688 293.188 31.9688C293.619 31.9688 294.034 31.9794 294.432 32.0006C295.56 32.0608 296.551 32.2065 297.406 32.4375L298.484 19.0312C297.203 18.75 295.594 18.6094 293.656 18.6094C290.406 18.6094 287.391 19.5156 284.609 21.3281ZM335.932 55.9148L335.937 55.9069C337.178 53.9529 338 50.6883 338 45.7031C338 40.7451 337.176 37.5457 335.954 35.6673C334.957 34.1353 333.281 33.1406 330.172 33.1406C327.105 33.1406 325.438 34.1279 324.437 35.6673L324.432 35.6743L324.427 35.6812C323.217 37.5185 322.391 40.7051 322.391 45.7031C322.391 50.6432 323.208 53.8912 324.447 55.8486C325.489 57.4531 327.194 58.4531 330.266 58.4531C333.319 58.4531 334.955 57.4621 335.932 55.9148ZM315.274 72.259L315.266 72.2545C310.892 69.7299 307.538 66.1113 305.223 61.4823C302.916 56.8678 301.813 51.5799 301.813 45.7031C301.813 36.6227 304.191 29.1417 309.331 23.6787C314.498 18.1866 321.651 15.6094 330.359 15.6094C335.838 15.6094 340.801 16.8047 345.156 19.2833C349.533 21.7742 352.892 25.3616 355.21 29.9627C357.522 34.5508 358.625 39.8271 358.625 45.7031C358.625 54.7634 356.225 62.2506 351.066 67.7677C345.878 73.3165 338.744 75.9375 330.078 75.9375C324.599 75.9375 319.637 74.7422 315.282 72.2636L315.274 72.259ZM402.302 75L401.096 70.7944C399.795 71.9294 398.314 72.8893 396.668 73.6757L396.656 73.6815L396.644 73.6873C393.376 75.2123 389.729 75.9375 385.766 75.9375C379.093 75.9375 373.543 74.1497 369.671 70.0846L369.666 70.0795L369.662 70.0743C365.847 66.0306 364.156 60.4393 364.156 53.7656V16.5938H384.453V50.2031C384.453 53.7079 385.09 55.821 385.914 56.9967C386.544 57.8689 387.635 58.5469 389.891 58.5469C393.17 58.5469 394.984 57.5088 396.067 55.8975C397.336 53.9764 398.234 50.2965 398.234 44.25V16.5938H418.531V75H402.302ZM398.563 57.5625C396.781 60.2188 393.891 61.5469 389.891 61.5469C386.953 61.5469 384.813 60.6094 383.469 58.7344C382.125 56.8281 381.453 53.9844 381.453 50.2031V19.5938H367.156V53.7656C367.156 59.9531 368.719 64.7031 371.844 68.0156C374.969 71.2969 379.609 72.9375 385.766 72.9375C389.359 72.9375 392.563 72.2812 395.375 70.9688C397.258 70.0693 398.853 68.9249 400.162 67.5354C400.737 66.9245 401.257 66.2662 401.721 65.5605C401.778 65.4734 401.835 65.3855 401.891 65.2969H402.641L404.563 72H415.531V19.5938H401.234V44.25C401.234 50.4375 400.344 54.875 398.563 57.5625ZM464.609 55.8257V72.4913L462.835 73.2853C458.782 75.0983 453.962 75.9375 448.484 75.9375C442.322 75.9375 437.169 74.3893 433.753 70.6478L433.742 70.6353L433.731 70.6226C430.455 66.9529 429.078 61.7636 429.078 55.5938V33.3281H422.234V22.593L430.662 17.4761L435.151 5.4375H449.375V16.5938H464.047V33.3281H449.375V55.5938C449.375 57.0621 449.761 57.591 450.007 57.8088C450.502 58.2166 451.278 58.5469 452.609 58.5469C454.7 58.5469 457.382 58.0842 460.715 57.0428L464.609 55.8257ZM446.375 55.5938C446.375 57.625 446.938 59.125 448.063 60.0938C449.219 61.0625 450.734 61.5469 452.609 61.5469C454.363 61.5469 456.363 61.2777 458.609 60.7394C459.565 60.5104 460.565 60.2327 461.609 59.9062V70.5469C458.047 72.1406 453.672 72.9375 448.484 72.9375C442.766 72.9375 438.594 71.5 435.969 68.625C433.375 65.7188 432.078 61.375 432.078 55.5938V30.3281H425.234V24.2812L433.109 19.5L437.234 8.4375H446.375V19.5938H461.047V30.3281H446.375V55.5938ZM489.064 33.6874L489.056 33.6964C488.378 34.449 487.803 35.4709 487.405 36.8438H500.571C500.227 35.4729 499.666 34.4702 498.98 33.7357L498.972 33.7269L498.963 33.7179C497.839 32.4944 496.285 31.7812 493.953 31.7812C491.619 31.7812 490.123 32.4939 489.072 33.6783L489.064 33.6874ZM503.641 36.8438C503.82 37.7684 503.918 38.7684 503.938 39.8438H483.875C483.951 38.7684 484.095 37.7684 484.308 36.8438C484.793 34.732 485.633 33.0133 486.828 31.6875C488.547 29.75 490.922 28.7812 493.953 28.7812C496.984 28.7812 499.391 29.75 501.172 31.6875C502.411 33.0133 503.234 34.732 503.641 36.8438ZM473.412 23.8023C478.494 18.2526 485.44 15.6094 493.859 15.6094C501.855 15.6094 508.476 17.9049 513.301 22.8401C518.108 27.756 520.344 34.4148 520.344 42.4219V52.3594H486.953C487.411 54.2504 488.221 55.6828 489.292 56.7684C490.837 58.3347 493.139 59.2969 496.625 59.2969C499.573 59.2969 502.327 58.9905 504.896 58.391C507.473 57.7897 510.212 56.8193 513.116 55.4562L517.391 53.4497V71.0885L515.732 71.9177C512.997 73.2854 510.084 74.289 507.003 74.9335C503.885 75.6171 500.192 75.9375 495.969 75.9375C486.967 75.9375 479.538 73.4389 474.087 68.0955C468.611 62.727 466.063 55.2699 466.063 46.1719C466.063 36.9107 468.375 29.3077 473.412 23.8023ZM506.375 72C509.219 71.4062 511.891 70.4844 514.391 69.2344V58.1719C513.377 58.6477 512.377 59.0807 511.391 59.4709C509.397 60.2596 507.46 60.8735 505.578 61.3125C502.766 61.9688 499.781 62.2969 496.625 62.2969C492.563 62.2969 489.406 61.1562 487.156 58.875C485.494 57.1894 484.403 55.0175 483.883 52.3594C483.7 51.4201 483.588 50.4201 483.547 49.3594H517.344V42.4219C517.344 34.9844 515.281 29.1562 511.156 24.9375C507.031 20.7188 501.266 18.6094 493.859 18.6094C486.109 18.6094 480.031 21.0156 475.625 25.8281C471.25 30.6094 469.063 37.3906 469.063 46.1719C469.063 54.7031 471.438 61.2969 476.188 65.9531C480.938 70.6094 487.531 72.9375 495.969 72.9375C500.063 72.9375 503.531 72.625 506.375 72ZM559.042 32.3717C557.019 31.5474 555.104 30.8506 553.297 30.2812C551.016 29.5625 548.688 29.2031 546.312 29.2031C542.094 29.2031 539.984 30.3438 539.984 32.625C539.984 33.9062 540.656 35.0156 542 35.9531C543.375 36.8906 546.359 38.2812 550.953 40.125C555.047 41.7812 558.047 43.3281 559.953 44.7656C561.859 46.2031 563.266 47.8594 564.172 49.7344C565.078 51.6094 565.531 53.8438 565.531 56.4375C565.531 61.8125 563.656 65.9062 559.906 68.7188C556.188 71.5312 550.609 72.9375 543.172 72.9375C539.359 72.9375 536.109 72.6719 533.422 72.1406C530.734 71.6406 528.219 70.8906 525.875 69.8906V58.0781C526.832 58.5287 527.832 58.9528 528.875 59.3506C530.725 60.0564 532.71 60.6791 534.828 61.2188C538.172 62.0625 541.109 62.4844 543.641 62.4844C548.828 62.4844 551.422 60.9844 551.422 57.9844C551.422 56.8594 551.078 55.9531 550.391 55.2656C549.703 54.5469 548.516 53.75 546.828 52.875C545.141 51.9688 542.891 50.9219 540.078 49.7344C536.047 48.0469 533.078 46.4844 531.172 45.0469C529.297 43.6094 527.922 41.9688 527.047 40.125C526.203 38.25 525.781 35.9531 525.781 33.2344C525.781 28.5781 527.578 24.9844 531.172 22.4531C534.797 19.8906 539.922 18.6094 546.547 18.6094C552.859 18.6094 559 19.9844 564.969 22.7344L560.656 33.0469C560.111 32.813 559.572 32.588 559.042 32.3717ZM529.444 20.0005C533.769 16.9452 539.593 15.6094 546.547 15.6094C553.311 15.6094 559.878 17.0859 566.224 20.0097L568.853 21.221L562.256 36.9965L559.474 35.8043C556.924 34.7113 554.565 33.8263 552.395 33.1426C550.404 32.5151 548.38 32.2031 546.312 32.2031C544.375 32.2031 543.392 32.4818 542.993 32.6975C542.992 32.6982 542.991 32.6989 542.989 32.6997C542.997 32.7518 543.016 32.8005 543.054 32.8639C543.124 32.9782 543.297 33.198 543.704 33.4838C544.774 34.2088 547.447 35.4852 552.071 37.3409L552.078 37.344C556.246 39.0303 559.536 40.694 561.759 42.3703C563.99 44.0526 565.731 46.0657 566.873 48.4289C568.018 50.7984 568.531 53.4999 568.531 56.4375C568.531 62.5967 566.331 67.6477 561.711 71.1152C557.243 74.492 550.899 75.9375 543.172 75.9375C539.241 75.9375 535.789 75.6652 532.855 75.0867C529.974 74.5494 527.252 73.7399 524.698 72.65L522.875 71.8723V53.3508L527.152 55.3637C529.609 56.5198 532.408 57.506 535.562 58.3099C538.746 59.1134 541.428 59.4844 543.641 59.4844C546.044 59.4844 547.357 59.1197 547.975 58.7624C548.238 58.61 548.313 58.4951 548.336 58.455C548.36 58.4147 548.422 58.2911 548.422 57.9844C548.422 57.5367 548.314 57.4305 548.273 57.3911L548.269 57.3869L548.246 57.3634L548.223 57.3393C547.886 56.9874 547.058 56.3734 545.447 55.5383L545.428 55.5283L545.409 55.518C543.837 54.6738 541.682 53.6679 538.911 52.4981C534.81 50.781 531.571 49.1053 529.366 47.4422L529.356 47.435L529.347 47.4277C527.154 45.7464 525.446 43.748 524.337 41.4112L524.324 41.3838L524.311 41.3561C523.247 38.9907 522.781 36.2473 522.781 33.2344C522.781 27.6705 524.999 23.1318 529.444 20.0005ZM87.2656 57.4688C85.5781 54.8125 84.7344 50.8906 84.7344 45.7031C84.7344 40.4844 85.5781 36.5938 87.2656 34.0312C88.9531 31.4375 91.7031 30.1406 95.5156 30.1406C99.3594 30.1406 102.125 31.4375 103.813 34.0312C105.5 36.625 106.344 40.5156 106.344 45.7031C106.344 50.9219 105.5 54.8594 103.813 57.5156C102.156 60.1406 99.4219 61.4531 95.6094 61.4531C91.7656 61.4531 88.9844 60.125 87.2656 57.4688ZM114.219 65.7188C118.719 60.9062 120.969 54.2344 120.969 45.7031C120.969 40.2031 119.938 35.4062 117.875 31.3125C115.813 27.2188 112.859 24.0781 109.016 21.8906C105.172 19.7031 100.734 18.6094 95.7031 18.6094C87.6094 18.6094 81.3281 20.9844 76.8594 25.7344C72.3906 30.4844 70.1563 37.1406 70.1563 45.7031C70.1563 51.2031 71.1875 56.0156 73.25 60.1406C75.3125 64.2656 78.2656 67.4375 82.1094 69.6562C85.9531 71.8438 90.3906 72.9375 95.4219 72.9375C103.453 72.9375 109.719 70.5312 114.219 65.7188ZM321.922 57.4688C320.234 54.8125 319.391 50.8906 319.391 45.7031C319.391 40.4844 320.234 36.5938 321.922 34.0312C323.609 31.4375 326.359 30.1406 330.172 30.1406C334.016 30.1406 336.781 31.4375 338.469 34.0312C340.156 36.625 341 40.5156 341 45.7031C341 50.9219 340.156 54.8594 338.469 57.5156C336.813 60.1406 334.078 61.4531 330.266 61.4531C326.422 61.4531 323.641 60.125 321.922 57.4688ZM348.875 65.7188C353.375 60.9062 355.625 54.2344 355.625 45.7031C355.625 40.2031 354.594 35.4062 352.531 31.3125C350.469 27.2188 347.516 24.0781 343.672 21.8906C339.828 19.7031 335.391 18.6094 330.359 18.6094C322.266 18.6094 315.984 20.9844 311.516 25.7344C307.047 30.4844 304.813 37.1406 304.813 45.7031C304.813 51.2031 305.844 56.0156 307.906 60.1406C309.969 64.2656 312.922 67.4375 316.766 69.6562C320.609 71.8438 325.047 72.9375 330.078 72.9375C338.109 72.9375 344.375 70.5312 348.875 65.7188Z" fill="url(#paint0_linear_84_118)" fill-opacity="0.55"/>
<path d="M59.5938 29.4453H68.4805C72.5299 29.4453 75.4661 30.0247 77.2891 31.1836C79.125 32.3294 80.043 34.1589 80.043 36.6719C80.043 38.3776 79.6393 39.7773 78.832 40.8711C78.0378 41.9648 76.9766 42.6224 75.6484 42.8438V43.0391C77.4583 43.4427 78.7604 44.1979 79.5547 45.3047C80.362 46.4115 80.7656 47.8828 80.7656 49.7188C80.7656 52.3229 79.8216 54.3542 77.9336 55.8125C76.0586 57.2708 73.5065 58 70.2773 58H59.5938V29.4453ZM65.6484 40.7539H69.1641C70.8047 40.7539 71.9896 40.5 72.7188 39.9922C73.4609 39.4844 73.832 38.6445 73.832 37.4727C73.832 36.3789 73.4284 35.5977 72.6211 35.1289C71.8268 34.6471 70.5638 34.4062 68.832 34.4062H65.6484V40.7539ZM65.6484 45.5586V53H69.5938C71.2604 53 72.4909 52.681 73.2852 52.043C74.0794 51.4049 74.4766 50.4284 74.4766 49.1133C74.4766 46.7435 72.7839 45.5586 69.3984 45.5586H65.6484ZM99.8672 58L98.7148 55.0312H98.5586C97.556 56.2943 96.5208 57.1732 95.4531 57.668C94.3984 58.1497 93.0182 58.3906 91.3125 58.3906C89.2161 58.3906 87.5625 57.7917 86.3516 56.5938C85.1536 55.3958 84.5547 53.6901 84.5547 51.4766C84.5547 49.1589 85.362 47.4531 86.9766 46.3594C88.6042 45.2526 91.0521 44.6406 94.3203 44.5234L98.1094 44.4062V43.4492C98.1094 41.2357 96.9766 40.1289 94.7109 40.1289C92.9661 40.1289 90.9154 40.6562 88.5586 41.7109L86.5859 37.6875C89.099 36.3724 91.8854 35.7148 94.9453 35.7148C97.875 35.7148 100.121 36.3529 101.684 37.6289C103.246 38.9049 104.027 40.8451 104.027 43.4492V58H99.8672ZM98.1094 47.8828L95.8047 47.9609C94.0729 48.013 92.7839 48.3255 91.9375 48.8984C91.0911 49.4714 90.668 50.3438 90.668 51.5156C90.668 53.1953 91.6315 54.0352 93.5586 54.0352C94.9388 54.0352 96.0391 53.638 96.8594 52.8438C97.6927 52.0495 98.1094 50.9948 98.1094 49.6797V47.8828ZM142.699 58H110.18V36.1641H116.137V53.5273H123.461V36.1641H129.418V53.5273H136.742V36.1641H142.699V58ZM154.73 36.1641V44.7969C154.73 45.7083 154.581 47.9349 154.281 51.4766L164.359 36.1641H171.527V58H165.766V49.2891C165.766 47.7396 165.896 45.5521 166.156 42.7266L156.117 58H148.969V36.1641H154.73ZM215.707 58H210.141V40.793L209.828 42.0039C209.125 44.7513 208.493 46.8281 207.934 48.2344L204.066 58H199.828L195.902 48.1562C195.342 46.724 194.743 44.7122 194.105 42.1211L193.734 40.793V58H188.188V36.1641H196.391L200.141 45.4805C200.531 46.4831 200.889 47.6354 201.215 48.9375C201.553 50.2396 201.781 51.3529 201.898 52.2773C202.328 50.3242 202.66 48.9245 202.895 48.0781C203.142 47.2188 203.409 46.431 203.695 45.7148C203.982 44.9987 205.277 41.8151 207.582 36.1641H215.707V58ZM235.844 58L234.691 55.0312H234.535C233.533 56.2943 232.497 57.1732 231.43 57.668C230.375 58.1497 228.995 58.3906 227.289 58.3906C225.193 58.3906 223.539 57.7917 222.328 56.5938C221.13 55.3958 220.531 53.6901 220.531 51.4766C220.531 49.1589 221.339 47.4531 222.953 46.3594C224.581 45.2526 227.029 44.6406 230.297 44.5234L234.086 44.4062V43.4492C234.086 41.2357 232.953 40.1289 230.688 40.1289C228.943 40.1289 226.892 40.6562 224.535 41.7109L222.562 37.6875C225.076 36.3724 227.862 35.7148 230.922 35.7148C233.852 35.7148 236.098 36.3529 237.66 37.6289C239.223 38.9049 240.004 40.8451 240.004 43.4492V58H235.844ZM234.086 47.8828L231.781 47.9609C230.049 48.013 228.76 48.3255 227.914 48.8984C227.068 49.4714 226.645 50.3438 226.645 51.5156C226.645 53.1953 227.608 54.0352 229.535 54.0352C230.915 54.0352 232.016 53.638 232.836 52.8438C233.669 52.0495 234.086 50.9948 234.086 49.6797V47.8828ZM258.148 58.3906C255.583 58.3906 253.572 57.4596 252.113 55.5977H251.801C252.009 57.4206 252.113 58.4753 252.113 58.7617V67.6094H246.156V36.1641H251L251.84 38.9961H252.113C253.507 36.8346 255.57 35.7539 258.305 35.7539C260.883 35.7539 262.901 36.75 264.359 38.7422C265.818 40.7344 266.547 43.5013 266.547 47.043C266.547 49.3737 266.202 51.3984 265.512 53.1172C264.835 54.8359 263.865 56.1445 262.602 57.043C261.339 57.9414 259.854 58.3906 258.148 58.3906ZM256.391 40.5195C254.919 40.5195 253.845 40.9753 253.168 41.8867C252.491 42.7852 252.139 44.276 252.113 46.3594V47.0039C252.113 49.3477 252.458 51.0273 253.148 52.043C253.852 53.0586 254.958 53.5664 256.469 53.5664C259.138 53.5664 260.473 51.3659 260.473 46.9648C260.473 44.8164 260.141 43.2083 259.477 42.1406C258.826 41.0599 257.797 40.5195 256.391 40.5195ZM303.988 58H271.469V36.1641H277.426V53.5273H284.75V36.1641H290.707V53.5273H298.031V36.1641H303.988V58ZM322.25 58.3906C319.685 58.3906 317.673 57.4596 316.215 55.5977H315.902C316.111 57.4206 316.215 58.4753 316.215 58.7617V67.6094H310.258V36.1641H315.102L315.941 38.9961H316.215C317.608 36.8346 319.672 35.7539 322.406 35.7539C324.984 35.7539 327.003 36.75 328.461 38.7422C329.919 40.7344 330.648 43.5013 330.648 47.043C330.648 49.3737 330.303 51.3984 329.613 53.1172C328.936 54.8359 327.966 56.1445 326.703 57.043C325.44 57.9414 323.956 58.3906 322.25 58.3906ZM320.492 40.5195C319.021 40.5195 317.947 40.9753 317.27 41.8867C316.592 42.7852 316.241 44.276 316.215 46.3594V47.0039C316.215 49.3477 316.56 51.0273 317.25 52.043C317.953 53.0586 319.06 53.5664 320.57 53.5664C323.24 53.5664 324.574 51.3659 324.574 46.9648C324.574 44.8164 324.242 43.2083 323.578 42.1406C322.927 41.0599 321.898 40.5195 320.492 40.5195ZM332.445 36.1641H338.969L343.09 48.4492C343.441 49.5169 343.682 50.7799 343.812 52.2383H343.93C344.073 50.8971 344.353 49.6341 344.77 48.4492L348.812 36.1641H355.199L345.961 60.793C345.115 63.0716 343.904 64.7773 342.328 65.9102C340.766 67.043 338.936 67.6094 336.84 67.6094C335.811 67.6094 334.802 67.4987 333.812 67.2773V62.5508C334.529 62.7201 335.31 62.8047 336.156 62.8047C337.211 62.8047 338.129 62.4792 338.91 61.8281C339.704 61.1901 340.323 60.2201 340.766 58.918L341.117 57.8438L332.445 36.1641ZM376.41 36.1641V40.6367H369.262V58H363.305V40.6367H356.137V36.1641H376.41ZM386.449 44.6016H389.32C392.654 44.6016 395.121 45.1354 396.723 46.2031C398.324 47.2708 399.125 48.8854 399.125 51.0469C399.125 53.3516 398.324 55.0898 396.723 56.2617C395.121 57.4206 392.725 58 389.535 58H380.492V36.1641H386.449V44.6016ZM393.168 51.125C393.168 50.2786 392.829 49.6667 392.152 49.2891C391.475 48.9115 390.466 48.7227 389.125 48.7227H386.449V53.8789H389.203C391.846 53.8789 393.168 52.9609 393.168 51.125ZM408.246 58H402.289V36.1641H408.246V58ZM413.676 55.207C413.676 54.1133 413.969 53.2865 414.555 52.7266C415.141 52.1667 415.993 51.8867 417.113 51.8867C418.194 51.8867 419.027 52.1732 419.613 52.7461C420.212 53.319 420.512 54.1393 420.512 55.207C420.512 56.2357 420.212 57.0495 419.613 57.6484C419.014 58.2344 418.181 58.5273 417.113 58.5273C416.02 58.5273 415.173 58.2409 414.574 57.668C413.975 57.082 413.676 56.2617 413.676 55.207ZM413.676 39.0742C413.676 37.9805 413.969 37.1536 414.555 36.5938C415.141 36.0339 415.993 35.7539 417.113 35.7539C418.194 35.7539 419.027 36.0404 419.613 36.6133C420.212 37.1862 420.512 38.0065 420.512 39.0742C420.512 40.1289 420.206 40.9492 419.594 41.5352C418.995 42.1081 418.168 42.3945 417.113 42.3945C416.02 42.3945 415.173 42.1081 414.574 41.5352C413.975 40.9622 413.676 40.1419 413.676 39.0742Z" fill="white"/>
<defs>
<linearGradient id="paint0_linear_84_118" x1="19.0534" y1="-16" x2="376.44" y2="267.658" gradientUnits="userSpaceOnUse">
<stop stop-color="#DF632E"/>
<stop offset="1" stop-color="#FF4E4E" stop-opacity="0.81"/>
</linearGradient>
</defs>
</svg>
